<svg xmlns="http://www.w3.org/2000/svg" width="695.3168334960938" height="625.5103149414062" viewBox="-257.89056396484375 -275.261474609375 695.3168334960938 625.5103149414062"><title>Neo4j Graph Visualization</title><desc>Created using Neo4j (http://www.neo4j.com/)</desc><g class="layer relationships"><g class="relationship" transform="translate(-62.10155484771556 122.13186258060203) rotate(328.21219015804945)"><path class="outline" fill="#A5ABB6" stroke="none" d="M 32.5 0.5 L 45.71623237696488 0.5 L 45.71623237696488 -0.5 L 32.5 -0.5 Z M 141.71623237696488 0.5 L 154.93246475392976 0.5 L 154.93246475392976 3.5 L 161.93246475392976 0 L 154.93246475392976 -3.5 L 154.93246475392976 -0.5 L 141.71623237696488 -0.5 Z"/><text text-anchor="middle" pointer-events="none" font-size="8px" fill="#000000" x="93.71623237696488" y="3" font-family="sans-serif">BELONGS_TO_SCHEMA</text></g><g class="relationship" transform="translate(247.7789438697187 -81.03592597315415) rotate(505.2620343266193)"><path class="outline" fill="#A5ABB6" stroke="none" d="M 32.5 0.5 L 44.11732648859733 0.5 L 44.11732648859733 -0.5 L 32.5 -0.5 Z M 140.1173264885973 0.5 L 151.73465297719466 0.5 L 151.73465297719466 3.5 L 158.73465297719466 0 L 151.73465297719466 -3.5 L 151.73465297719466 -0.5 L 140.1173264885973 -0.5 Z"/><text text-anchor="middle" pointer-events="none" font-size="8px" fill="#000000" x="92.11732648859733" y="3" transform="rotate(180 92.11732648859733 0)" font-family="sans-serif">BELONGS_TO_SCHEMA</text></g><g class="relationship" transform="translate(10.898007138399608 24.473587340652937) rotate(486.7781148053899)"><path class="outline" fill="#A5ABB6" stroke="none" d="M 40 0.5 L 40.71325691145102 0.5 L 40.71325691145102 -0.5 L 40 -0.5 Z M 81.71325691145103 0.5 L 82.42651382290204 0.5 L 82.42651382290204 3.5 L 89.42651382290204 0 L 82.42651382290204 -3.5 L 82.42651382290204 -0.5 L 81.71325691145103 -0.5 Z"/><text text-anchor="middle" pointer-events="none" font-size="8px" fill="#000000" x="61.21325691145102" y="3" transform="rotate(180 61.21325691145102 0)" font-family="sans-serif">IS_COL…</text></g><g class="relationship" transform="translate(36.71738470765247 151.4791859283443) rotate(196.54040626786013)"><path class="outline" fill="#A5ABB6" stroke="none" d="M 40 0.5 L 41.29233260758679 0.5 L 41.29233260758679 -0.5 L 40 -0.5 Z M 62.29233260758679 0.5 L 63.58466521517359 0.5 L 63.58466521517359 3.5 L 70.58466521517359 0 L 63.58466521517359 -3.5 L 63.58466521517359 -0.5 L 62.29233260758679 -0.5 Z"/><text text-anchor="middle" pointer-events="none" font-size="8px" fill="#000000" x="51.79233260758679" y="3" transform="rotate(180 51.79233260758679 0)" font-family="sans-serif">IS…</text></g><g class="relationship" transform="translate(125.56187708753517 160.52903475157893) rotate(191.56349209683742)"><path class="outline" fill="#A5ABB6" stroke="none" d="M 40 0.5 L 49.0256578109022 0.5 L 49.0256578109022 -0.5 L 40 -0.5 Z M 143.0256578109022 0.5 L 152.0513156218044 0.5 L 152.0513156218044 3.5 L 159.0513156218044 0 L 152.0513156218044 -3.5 L 152.0513156218044 -0.5 L 143.0256578109022 -0.5 Z"/><text text-anchor="middle" pointer-events="none" font-size="8px" fill="#000000" x="96.0256578109022" y="3" transform="rotate(180 96.0256578109022 0)" font-family="sans-serif">IS_COLUMN_OF_TABLE</text></g><g class="relationship" transform="translate(73.18882674063548 233.67377012839952) rotate(219.50431747331982)"><path class="outline" fill="#A5ABB6" stroke="none" d="M 40 0.5 L 40.92138143334323 0.5 L 40.92138143334323 -0.5 L 40 -0.5 Z M 134.92138143334324 0.5 L 135.84276286668646 0.5 L 135.84276286668646 3.5 L 142.84276286668646 0 L 135.84276286668646 -3.5 L 135.84276286668646 -0.5 L 134.92138143334324 -0.5 Z"/><text text-anchor="middle" pointer-events="none" font-size="8px" fill="#000000" x="87.92138143334323" y="3" transform="rotate(180 87.92138143334323 0)" font-family="sans-serif">IS_COLUMN_OF_TABLE</text></g><g class="relationship" transform="translate(-16.122323083397816 224.56068152238618) rotate(245.82518403813373)"><path class="outline" fill="#A5ABB6" stroke="none" d="M 40 0.5 L 40.88767162842979 0.5 L 40.88767162842979 -0.5 L 40 -0.5 Z M 71.88767162842979 0.5 L 72.77534325685959 0.5 L 72.77534325685959 3.5 L 79.77534325685959 0 L 72.77534325685959 -3.5 L 72.77534325685959 -0.5 L 71.88767162842979 -0.5 Z"/><text text-anchor="middle" pointer-events="none" font-size="8px" fill="#000000" x="56.38767162842979" y="3" transform="rotate(180 56.38767162842979 0)" font-family="sans-serif">IS_C…</text></g><g class="relationship" transform="translate(-69.01506918053515 297.0356612614239) rotate(272.26358197428414)"><path class="outline" fill="#A5ABB6" stroke="none" d="M 40 0.5 L 40.77019120381817 0.5 L 40.77019120381817 -0.5 L 40 -0.5 Z M 134.77019120381817 0.5 L 135.54038240763634 0.5 L 135.54038240763634 3.5 L 142.54038240763634 0 L 135.54038240763634 -3.5 L 135.54038240763634 -0.5 L 134.77019120381817 -0.5 Z"/><text text-anchor="middle" pointer-events="none" font-size="8px" fill="#000000" x="87.77019120381817" y="3" font-family="sans-serif">IS_COLUMN_OF_TABLE</text></g><g class="relationship" transform="translate(20.372783706361254 306.24886522639946) rotate(245.87023258604637)"><path class="outline" fill="#A5ABB6" stroke="none" d="M 40 0.5 L 54.122552241931814 0.5 L 54.122552241931814 -0.5 L 40 -0.5 Z M 148.12255224193183 0.5 L 162.24510448386363 0.5 L 162.24510448386363 3.5 L 169.24510448386363 0 L 162.24510448386363 -3.5 L 162.24510448386363 -0.5 L 148.12255224193183 -0.5 Z"/><text text-anchor="middle" pointer-events="none" font-size="8px" fill="#000000" x="101.12255224193181" y="3" transform="rotate(180 101.12255224193181 0)" font-family="sans-serif">IS_COLUMN_OF_TABLE</text></g><g class="relationship" transform="translate(-163.13858920927285 284.52187487969525) rotate(301.8893572401441)"><path class="outline" fill="#A5ABB6" stroke="none" d="M 40 0.5 L 48.87818413924599 0.5 L 48.87818413924599 -0.5 L 40 -0.5 Z M 142.878184139246 0.5 L 151.75636827849198 0.5 L 151.75636827849198 3.5 L 158.75636827849198 0 L 151.75636827849198 -3.5 L 151.75636827849198 -0.5 L 142.878184139246 -0.5 Z"/><text text-anchor="middle" pointer-events="none" font-size="8px" fill="#000000" x="95.87818413924599" y="3" font-family="sans-serif">IS_COLUMN_OF_TABLE</text></g><g class="relationship" transform="translate(-213.8905476072697 112.45603451664361) rotate(363.64739907239993)"><path class="outline" fill="#A5ABB6" stroke="none" d="M 40 0.5 L 41.29853708600065 0.5 L 41.29853708600065 -0.5 L 40 -0.5 Z M 111.29853708600065 0.5 L 112.5970741720013 0.5 L 112.5970741720013 3.5 L 119.5970741720013 0 L 112.5970741720013 -3.5 L 112.5970741720013 -0.5 L 111.29853708600065 -0.5 Z"/><text text-anchor="middle" pointer-events="none" font-size="8px" fill="#000000" x="76.29853708600065" y="3" font-family="sans-serif">IS_COLUMN_O…</text></g><g class="relationship" transform="translate(-181.76844531830778 28.481635161900325) rotate(398.04641254455936)"><path class="outline" fill="#A5ABB6" stroke="none" d="M 40 0.5 L 41.22784178705537 0.5 L 41.22784178705537 -0.5 L 40 -0.5 Z M 111.22784178705537 0.5 L 112.45568357411074 0.5 L 112.45568357411074 3.5 L 119.45568357411074 0 L 112.45568357411074 -3.5 L 112.45568357411074 -0.5 L 111.22784178705537 -0.5 Z"/><text text-anchor="middle" pointer-events="none" font-size="8px" fill="#000000" x="76.22784178705537" y="3" font-family="sans-serif">IS_COLUMN_O…</text></g><g class="relationship" transform="translate(-106.45312660044728 215.45612108401252) rotate(295.41901233270397)"><path class="outline" fill="#A5ABB6" stroke="none" d="M 40 0.5 L 41.413524710740305 0.5 L 41.413524710740305 -0.5 L 40 -0.5 Z M 62.413524710740305 0.5 L 63.82704942148061 0.5 L 63.82704942148061 3.5 L 70.82704942148061 0 L 63.82704942148061 -3.5 L 63.82704942148061 -0.5 L 62.413524710740305 -0.5 Z"/><text text-anchor="middle" pointer-events="none" font-size="8px" fill="#000000" x="51.913524710740305" y="3" font-family="sans-serif">IS…</text></g><g class="relationship" transform="translate(-195.16305753333737 200.41355560481728) rotate(329.53118550670354)"><path class="outline" fill="#A5ABB6" stroke="none" d="M 40 0.5 L 42.4403280205707 0.5 L 42.4403280205707 -0.5 L 40 -0.5 Z M 112.4403280205707 0.5 L 114.8806560411414 0.5 L 114.8806560411414 3.5 L 121.8806560411414 0 L 114.8806560411414 -3.5 L 114.8806560411414 -0.5 L 112.4403280205707 -0.5 Z"/><text text-anchor="middle" pointer-events="none" font-size="8px" fill="#000000" x="77.4403280205707" y="3" font-family="sans-serif">IS_COLUMN_O…</text></g><g class="relationship" transform="translate(-105.60980634596768 -19.246018096331454) rotate(432.89454437363213)"><path class="outline" fill="#A5ABB6" stroke="none" d="M 40 0.5 L 42.210585944705045 0.5 L 42.210585944705045 -0.5 L 40 -0.5 Z M 106.21058594470504 0.5 L 108.42117188941009 0.5 L 108.42117188941009 3.5 L 115.42117188941009 0 L 108.42117188941009 -3.5 L 108.42117188941009 -0.5 L 106.21058594470504 -0.5 Z"/><text text-anchor="middle" pointer-events="none" font-size="8px" fill="#000000" x="74.21058594470504" y="3" font-family="sans-serif">IS_COLUMN_…</text></g><g class="relationship" transform="translate(102.00901062889466 -127.66368177935593) rotate(377.7380314844519)"><path class="outline" fill="#A5ABB6" stroke="none" d="M 40 0.5 L 41.77290678051422 0.5 L 41.77290678051422 -0.5 L 40 -0.5 Z M 111.77290678051422 0.5 L 113.54581356102844 0.5 L 113.54581356102844 3.5 L 120.54581356102844 0 L 113.54581356102844 -3.5 L 113.54581356102844 -0.5 L 111.77290678051422 -0.5 Z"/><text text-anchor="middle" pointer-events="none" font-size="8px" fill="#000000" x="76.77290678051422" y="3" font-family="sans-serif">IS_COLUMN_O…</text></g><g class="relationship" transform="translate(278.69414558331033 60.786113245482994) rotate(257.7027010384743)"><path class="outline" fill="#A5ABB6" stroke="none" d="M 40 0.5 L 40.82623665003014 0.5 L 40.82623665003014 -0.5 L 40 -0.5 Z M 104.82623665003014 0.5 L 105.65247330006028 0.5 L 105.65247330006028 3.5 L 112.65247330006028 0 L 105.65247330006028 -3.5 L 105.65247330006028 -0.5 L 104.82623665003014 -0.5 Z"/><text text-anchor="middle" pointer-events="none" font-size="8px" fill="#000000" x="72.82623665003014" y="3" transform="rotate(180 72.82623665003014 0)" font-family="sans-serif">IS_COLUMN_…</text></g><g class="relationship" transform="translate(228.71612710403926 -231.26145486194304) rotate(442.76812300730825)"><path class="outline" fill="#A5ABB6" stroke="none" d="M 40 0.5 L 40.96509181292427 0.5 L 40.96509181292427 -0.5 L 40 -0.5 Z M 110.96509181292427 0.5 L 111.93018362584854 0.5 L 111.93018362584854 3.5 L 118.93018362584854 0 L 111.93018362584854 -3.5 L 111.93018362584854 -0.5 L 110.96509181292427 -0.5 Z"/><text text-anchor="middle" pointer-events="none" font-size="8px" fill="#000000" x="75.96509181292427" y="3" font-family="sans-serif">IS_COLUMN_O…</text></g><g class="relationship" transform="translate(142.00215566883261 -208.0599797159242) rotate(410.21482325074936)"><path class="outline" fill="#A5ABB6" stroke="none" d="M 40 0.5 L 40.899620615192845 0.5 L 40.899620615192845 -0.5 L 40 -0.5 Z M 124.89962061519284 0.5 L 125.79924123038569 0.5 L 125.79924123038569 3.5 L 132.7992412303857 0 L 125.79924123038569 -3.5 L 125.79924123038569 -0.5 L 124.89962061519284 -0.5 Z"/><text text-anchor="middle" pointer-events="none" font-size="8px" fill="#000000" x="82.89962061519284" y="3" font-family="sans-serif">IS_COLUMN_OF_T…</text></g><g class="relationship" transform="translate(316.3932488316098 -211.4371253362746) rotate(477.7523795928893)"><path class="outline" fill="#A5ABB6" stroke="none" d="M 40 0.5 L 41.92563308303444 0.5 L 41.92563308303444 -0.5 L 40 -0.5 Z M 105.92563308303444 0.5 L 107.85126616606888 0.5 L 107.85126616606888 3.5 L 114.85126616606888 0 L 107.85126616606888 -3.5 L 107.85126616606888 -0.5 L 105.92563308303444 -0.5 Z"/><text text-anchor="middle" pointer-events="none" font-size="8px" fill="#000000" x="73.92563308303444" y="3" transform="rotate(180 73.92563308303444 0)" font-family="sans-serif">IS_COLUMN_…</text></g><g class="relationship" transform="translate(393.42627622911397 -56.86742165598963) rotate(189.42172584156583)"><path class="outline" fill="#A5ABB6" stroke="none" d="M 40 0.5 L 42.06947917781754 0.5 L 42.06947917781754 -0.5 L 40 -0.5 Z M 106.06947917781754 0.5 L 108.13895835563508 0.5 L 108.13895835563508 3.5 L 115.13895835563508 0 L 108.13895835563508 -3.5 L 108.13895835563508 -0.5 L 106.06947917781754 -0.5 Z"/><text text-anchor="middle" pointer-events="none" font-size="8px" fill="#000000" x="74.06947917781754" y="3" transform="rotate(180 74.06947917781754 0)" font-family="sans-serif">IS_COLUMN_…</text></g><g class="relationship" transform="translate(377.05949958255184 -145.29139575928573) rotate(513.5715455026562)"><path class="outline" fill="#A5ABB6" stroke="none" d="M 40 0.5 L 40.434187123731306 0.5 L 40.434187123731306 -0.5 L 40 -0.5 Z M 104.4341871237313 0.5 L 104.86837424746261 0.5 L 104.86837424746261 3.5 L 111.86837424746261 0 L 104.86837424746261 -3.5 L 104.86837424746261 -0.5 L 104.4341871237313 -0.5 Z"/><text text-anchor="middle" pointer-events="none" font-size="8px" fill="#000000" x="72.4341871237313" y="3" transform="rotate(180 72.4341871237313 0)" font-family="sans-serif">IS_COLUMN_…</text></g><g class="relationship" transform="translate(141.9376356018544 -47.01609842294481) rotate(342.18140202100744)"><path class="outline" fill="#A5ABB6" stroke="none" d="M 40 0.5 L 40.33716399133675 0.5 L 40.33716399133675 -0.5 L 40 -0.5 Z M 71.33716399133675 0.5 L 71.6743279826735 0.5 L 71.6743279826735 3.5 L 78.6743279826735 0 L 71.6743279826735 -3.5 L 71.6743279826735 -0.5 L 71.33716399133675 -0.5 Z"/><text text-anchor="middle" pointer-events="none" font-size="8px" fill="#000000" x="55.83716399133675" y="3" font-family="sans-serif">IS_C…</text></g><g class="relationship" transform="translate(362.17647742052117 27.439195850301694) rotate(223.47783318332574)"><path class="outline" fill="#A5ABB6" stroke="none" d="M 40 0.5 L 41.57519859968728 0.5 L 41.57519859968728 -0.5 L 40 -0.5 Z M 116.57519859968728 0.5 L 118.15039719937457 0.5 L 118.15039719937457 3.5 L 125.15039719937457 0 L 118.15039719937457 -3.5 L 118.15039719937457 -0.5 L 116.57519859968728 -0.5 Z"/><text text-anchor="middle" pointer-events="none" font-size="8px" fill="#000000" x="79.07519859968728" y="3" transform="rotate(180 79.07519859968728 0)" font-family="sans-serif">IS_COLUMN_OF…</text></g></g><g class="layer nodes"><g class="node" transform="translate(96.79193522936586,23.66052060689059)"><circle class="outline" cx="0" cy="0" r="25" fill="#FB95AF" stroke="#E0849B" stroke-width="2px"/><text text-anchor="middle" pointer-events="none" y="5" font-size="10px" fill="#FFFFFF" font-family="sans-serif"> public</text></g><g class="node" transform="translate(-62.10155484771556,122.13186258060203)"><circle class="outline" cx="0" cy="0" r="32.5" fill="#FF756E" stroke="#E06760" stroke-width="2px"/><text text-anchor="middle" pointer-events="none" y="5" font-size="10px" fill="#FFFFFF" font-family="sans-serif"> public.ame…</text></g><g class="node" transform="translate(-105.60980634596768,-19.246018096331454)"><circle class="outline" cx="0" cy="0" r="40" fill="#68BDF6" stroke="#5CA8DB" stroke-width="2px"/><text text-anchor="middle" pointer-events="none" y="5" font-size="10px" fill="#FFFFFF" font-family="sans-serif"> serial</text></g><g class="node" transform="translate(-195.16305753333737,200.41355560481728)"><circle class="outline" cx="0" cy="0" r="40" fill="#68BDF6" stroke="#5CA8DB" stroke-width="2px"/><text text-anchor="middle" pointer-events="none" y="5" font-size="10px" fill="#FFFFFF" font-family="sans-serif"> varchar</text></g><g class="node" transform="translate(-106.45312660044728,215.45612108401252)"><circle class="outline" cx="0" cy="0" r="40" fill="#68BDF6" stroke="#5CA8DB" stroke-width="2px"/><text text-anchor="middle" pointer-events="none" y="5" font-size="10px" fill="#FFFFFF" font-family="sans-serif"> varchar</text></g><g class="node" transform="translate(-181.76844531830778,28.481635161900325)"><circle class="outline" cx="0" cy="0" r="40" fill="#68BDF6" stroke="#5CA8DB" stroke-width="2px"/><text text-anchor="middle" pointer-events="none" y="5" font-size="10px" fill="#FFFFFF" font-family="sans-serif"> varchar</text></g><g class="node" transform="translate(-213.8905476072697,112.45603451664361)"><circle class="outline" cx="0" cy="0" r="40" fill="#68BDF6" stroke="#5CA8DB" stroke-width="2px"/><text text-anchor="middle" pointer-events="none" y="5" font-size="10px" fill="#FFFFFF" font-family="sans-serif"> varchar</text></g><g class="node" transform="translate(-163.13858920927285,284.52187487969525)"><circle class="outline" cx="0" cy="0" r="40" fill="#68BDF6" stroke="#5CA8DB" stroke-width="2px"/><text text-anchor="middle" pointer-events="none" y="5" font-size="10px" fill="#FFFFFF" font-family="sans-serif"> varchar</text></g><g class="node" transform="translate(20.372783706361254,306.24886522639946)"><circle class="outline" cx="0" cy="0" r="40" fill="#68BDF6" stroke="#5CA8DB" stroke-width="2px"/><text text-anchor="middle" pointer-events="none" y="5" font-size="10px" fill="#FFFFFF" font-family="sans-serif"> varchar</text></g><g class="node" transform="translate(-69.01506918053515,297.0356612614239)"><circle class="outline" cx="0" cy="0" r="40" fill="#68BDF6" stroke="#5CA8DB" stroke-width="2px"/><text text-anchor="middle" pointer-events="none" y="5" font-size="10px" fill="#FFFFFF" font-family="sans-serif"> varchar</text></g><g class="node" transform="translate(-16.122323083397816,224.56068152238618)"><circle class="outline" cx="0" cy="0" r="40" fill="#68BDF6" stroke="#5CA8DB" stroke-width="2px"/><text text-anchor="middle" pointer-events="none" y="5" font-size="10px" fill="#FFFFFF" font-family="sans-serif"> varchar</text></g><g class="node" transform="translate(73.18882674063548,233.67377012839952)"><circle class="outline" cx="0" cy="0" r="40" fill="#68BDF6" stroke="#5CA8DB" stroke-width="2px"/><text text-anchor="middle" pointer-events="none" y="5" font-size="10px" fill="#FFFFFF" font-family="sans-serif"> varchar</text></g><g class="node" transform="translate(125.56187708753517,160.52903475157893)"><circle class="outline" cx="0" cy="0" r="40" fill="#68BDF6" stroke="#5CA8DB" stroke-width="2px"/><text text-anchor="middle" pointer-events="none" y="5" font-size="10px" fill="#FFFFFF" font-family="sans-serif"> varchar</text></g><g class="node" transform="translate(36.71738470765247,151.4791859283443)"><circle class="outline" cx="0" cy="0" r="40" fill="#68BDF6" stroke="#5CA8DB" stroke-width="2px"/><text text-anchor="middle" pointer-events="none" y="5" font-size="10px" fill="#FFFFFF" font-family="sans-serif"> varchar</text></g><g class="node" transform="translate(10.898007138399608,24.473587340652937)"><circle class="outline" cx="0" cy="0" r="40" fill="#68BDF6" stroke="#5CA8DB" stroke-width="2px"/><text text-anchor="middle" pointer-events="none" y="5" font-size="10px" fill="#FFFFFF" font-family="sans-serif"> varchar</text></g><g class="node" transform="translate(247.7789438697187,-81.03592597315415)"><circle class="outline" cx="0" cy="0" r="32.5" fill="#FF756E" stroke="#E06760" stroke-width="2px"/><text text-anchor="middle" pointer-events="none" y="5" font-size="10px" fill="#FFFFFF" font-family="sans-serif"> public.ame…</text></g><g class="node" transform="translate(362.17647742052117,27.439195850301694)"><circle class="outline" cx="0" cy="0" r="40" fill="#68BDF6" stroke="#5CA8DB" stroke-width="2px"/><text text-anchor="middle" pointer-events="none" y="5" font-size="10px" fill="#FFFFFF" font-family="sans-serif"> serial</text></g><g class="node" transform="translate(377.05949958255184,-145.29139575928573)"><circle class="outline" cx="0" cy="0" r="40" fill="#68BDF6" stroke="#5CA8DB" stroke-width="2px"/><text text-anchor="middle" pointer-events="none" y="5" font-size="10px" fill="#FFFFFF" font-family="sans-serif"> varchar</text></g><g class="node" transform="translate(141.9376356018544,-47.01609842294481)"><circle class="outline" cx="0" cy="0" r="40" fill="#68BDF6" stroke="#5CA8DB" stroke-width="2px"/><text text-anchor="middle" pointer-events="none" y="5" font-size="10px" fill="#FFFFFF" font-family="sans-serif"> varchar</text></g><g class="node" transform="translate(316.3932488316098,-211.4371253362746)"><circle class="outline" cx="0" cy="0" r="40" fill="#68BDF6" stroke="#5CA8DB" stroke-width="2px"/><text text-anchor="middle" pointer-events="none" y="5" font-size="10px" fill="#FFFFFF" font-family="sans-serif"> varchar</text></g><g class="node" transform="translate(393.42627622911397,-56.86742165598963)"><circle class="outline" cx="0" cy="0" r="40" fill="#68BDF6" stroke="#5CA8DB" stroke-width="2px"/><text text-anchor="middle" pointer-events="none" y="5" font-size="10px" fill="#FFFFFF" font-family="sans-serif"> varchar</text></g><g class="node" transform="translate(228.71612710403926,-231.26145486194304)"><circle class="outline" cx="0" cy="0" r="40" fill="#68BDF6" stroke="#5CA8DB" stroke-width="2px"/><text text-anchor="middle" pointer-events="none" y="5" font-size="10px" fill="#FFFFFF" font-family="sans-serif"> varchar</text></g><g class="node" transform="translate(142.00215566883261,-208.0599797159242)"><circle class="outline" cx="0" cy="0" r="40" fill="#68BDF6" stroke="#5CA8DB" stroke-width="2px"/><text text-anchor="middle" pointer-events="none" y="5" font-size="10px" fill="#FFFFFF" font-family="sans-serif"> varchar</text></g><g class="node" transform="translate(102.00901062889466,-127.66368177935593)"><circle class="outline" cx="0" cy="0" r="40" fill="#68BDF6" stroke="#5CA8DB" stroke-width="2px"/><text text-anchor="middle" pointer-events="none" y="5" font-size="10px" fill="#FFFFFF" font-family="sans-serif"> varchar</text></g><g class="node" transform="translate(278.69414558331033,60.786113245482994)"><circle class="outline" cx="0" cy="0" r="40" fill="#68BDF6" stroke="#5CA8DB" stroke-width="2px"/><text text-anchor="middle" pointer-events="none" y="5" font-size="10px" fill="#FFFFFF" font-family="sans-serif"> varchar</text></g></g></svg>
