<svg xmlns="http://www.w3.org/2000/svg" width="1058.656982421875" height="951.2608032226562" viewBox="-447.18792724609375 -354.21087646484375 1058.656982421875 951.2608032226562"><title>Neo4j Graph Visualization</title><desc>Created using Neo4j (http://www.neo4j.com/)</desc><g class="layer relationships"><g class="relationship" transform="translate(-240.76824760207992 134.21509855370542) rotate(359.4389995163042)"><path class="outline" fill="#A5ABB6" stroke="none" d="M 10 0.5 L 90.03027098112449 0.5 L 90.03027098112449 -0.5 L 10 -0.5 Z M 186.0302709811245 0.5 L 266.060541962249 0.5 L 266.060541962249 3.5 L 273.060541962249 0 L 266.060541962249 -3.5 L 266.060541962249 -0.5 L 186.0302709811245 -0.5 Z"/><text text-anchor="middle" pointer-events="none" font-size="8px" fill="#000000" x="138.0302709811245" y="3" font-family="sans-serif">BELONGS_TO_SCHEMA</text></g><g class="relationship" transform="translate(-77.32721640111045 401.43240691053137) rotate(296.4865020213978)"><path class="outline" fill="#A5ABB6" stroke="none" d="M 10 0.5 L 91.90712615187911 0.5 L 91.90712615187911 -0.5 L 10 -0.5 Z M 187.9071261518791 0.5 L 269.8142523037582 0.5 L 269.8142523037582 3.5 L 276.8142523037582 0 L 269.8142523037582 -3.5 L 269.8142523037582 -0.5 L 187.9071261518791 -0.5 Z"/><text text-anchor="middle" pointer-events="none" font-size="8px" fill="#000000" x="139.9071261518791" y="3" font-family="sans-serif">BELONGS_TO_SCHEMA</text></g><g class="relationship" transform="translate(397.7131238914585 115.78191082870448) rotate(537.3906341575173)"><path class="outline" fill="#A5ABB6" stroke="none" d="M 10 0.5 L 111.39423321098556 0.5 L 111.39423321098556 -0.5 L 10 -0.5 Z M 207.39423321098556 0.5 L 308.7884664219711 0.5 L 308.7884664219711 3.5 L 315.7884664219711 0 L 308.7884664219711 -3.5 L 308.7884664219711 -0.5 L 207.39423321098556 -0.5 Z"/><text text-anchor="middle" pointer-events="none" font-size="8px" fill="#000000" x="159.39423321098556" y="3" transform="rotate(180 159.39423321098556 0)" font-family="sans-serif">BELONGS_TO_SCHEMA</text></g><g class="relationship" transform="translate(170.60468940745824 168.29387732974737) rotate(198.08002016968612)"><path class="outline" fill="#A5ABB6" stroke="none" d="M 10 0.5 L 11.10646959468734 0.5 L 11.10646959468734 -0.5 L 10 -0.5 Z M 86.10646959468734 0.5 L 87.21293918937468 0.5 L 87.21293918937468 3.5 L 94.21293918937468 0 L 87.21293918937468 -3.5 L 87.21293918937468 -0.5 L 86.10646959468734 -0.5 Z"/><text text-anchor="middle" pointer-events="none" font-size="8px" fill="#000000" x="48.60646959468734" y="3" transform="rotate(180 48.60646959468734 0)" font-family="sans-serif">BELONGS_TO_S…</text></g><g class="relationship" transform="translate(144.16083664839078 -136.51851364312077) rotate(467.97375203385803)"><path class="outline" fill="#A5ABB6" stroke="none" d="M 10 0.5 L 81.77787287581188 0.5 L 81.77787287581188 -0.5 L 10 -0.5 Z M 177.77787287581188 0.5 L 249.55574575162376 0.5 L 249.55574575162376 3.5 L 256.55574575162376 0 L 249.55574575162376 -3.5 L 249.55574575162376 -0.5 L 177.77787287581188 -0.5 Z"/><text text-anchor="middle" pointer-events="none" font-size="8px" fill="#000000" x="129.77787287581188" y="3" transform="rotate(180 129.77787287581188 0)" font-family="sans-serif">BELONGS_TO_SCHEMA</text></g><g class="relationship" transform="translate(-34.97187403795342 57.73231270472445) rotate(398.57051944800935)"><path class="outline" fill="#A5ABB6" stroke="none" d="M 10 0.5 L 10.495266771613352 0.5 L 10.495266771613352 -0.5 L 10 -0.5 Z M 85.49526677161336 0.5 L 85.9905335432267 0.5 L 85.9905335432267 3.5 L 92.9905335432267 0 L 85.9905335432267 -3.5 L 85.9905335432267 -0.5 L 85.49526677161336 -0.5 Z"/><text text-anchor="middle" pointer-events="none" font-size="8px" fill="#000000" x="47.99526677161335" y="3" font-family="sans-serif">BELONGS_TO_S…</text></g><g class="relationship" transform="translate(-139.3972414783998 -118.38885830369296) rotate(411.77279313273107)"><path class="outline" fill="#A5ABB6" stroke="none" d="M 10 0.5 L 99.92140591553323 0.5 L 99.92140591553323 -0.5 L 10 -0.5 Z M 195.92140591553323 0.5 L 285.84281183106646 0.5 L 285.84281183106646 3.5 L 292.84281183106646 0 L 285.84281183106646 -3.5 L 285.84281183106646 -0.5 L 195.92140591553323 -0.5 Z"/><text text-anchor="middle" pointer-events="none" font-size="8px" fill="#000000" x="147.92140591553323" y="3" font-family="sans-serif">BELONGS_TO_SCHEMA</text></g><g class="relationship" transform="translate(186.12515705038086 386.56342363393424) rotate(243.21740746876196)"><path class="outline" fill="#A5ABB6" stroke="none" d="M 10 0.5 L 83.97085904372071 0.5 L 83.97085904372071 -0.5 L 10 -0.5 Z M 179.9708590437207 0.5 L 253.94171808744142 0.5 L 253.94171808744142 3.5 L 260.9417180874414 0 L 253.94171808744142 -3.5 L 253.94171808744142 -0.5 L 179.9708590437207 -0.5 Z"/><text text-anchor="middle" pointer-events="none" font-size="8px" fill="#000000" x="131.9708590437207" y="3" transform="rotate(180 131.9708590437207 0)" font-family="sans-serif">BELONGS_TO_SCHEMA</text></g><g class="relationship" transform="translate(-25.006372290309486 222.6405829593963) rotate(312.013166626763)"><path class="outline" fill="#A5ABB6" stroke="none" d="M 10 0.5 L 12.97035079826955 0.5 L 12.97035079826955 -0.5 L 10 -0.5 Z M 87.97035079826955 0.5 L 90.9407015965391 0.5 L 90.9407015965391 3.5 L 97.9407015965391 0 L 90.9407015965391 -3.5 L 90.9407015965391 -0.5 L 87.97035079826955 -0.5 Z"/><text text-anchor="middle" pointer-events="none" font-size="8px" fill="#000000" x="50.47035079826955" y="3" font-family="sans-serif">BELONGS_TO_S…</text></g><g class="relationship" transform="translate(-344.82596465231603 138.08550236167608) rotate(357.8698780776218)"><path class="outline" fill="#A5ABB6" stroke="none" d="M 5 0.5 L 6.564835789964214 0.5 L 6.564835789964214 -0.5 L 5 -0.5 Z M 85.5648357899642 0.5 L 87.12967157992843 0.5 L 87.12967157992843 3.5 L 94.12967157992843 0 L 87.12967157992843 -3.5 L 87.12967157992843 -0.5 L 85.5648357899642 -0.5 Z"/><text text-anchor="middle" pointer-events="none" font-size="8px" fill="#000000" x="46.064835789964214" y="3" font-family="sans-serif">IS_COLUMN_OF_…</text></g><g class="relationship" transform="translate(-391.24711684900933 176.43542850669644) rotate(344.3273065523972)"><path class="outline" fill="#A5ABB6" stroke="none" d="M 5 0.5 L 25.144811649868842 0.5 L 25.144811649868842 -0.5 L 5 -0.5 Z M 119.14481164986884 0.5 L 139.28962329973768 0.5 L 139.28962329973768 3.5 L 146.28962329973768 0 L 139.28962329973768 -3.5 L 139.28962329973768 -0.5 L 119.14481164986884 -0.5 Z"/><text text-anchor="middle" pointer-events="none" font-size="8px" fill="#000000" x="72.14481164986884" y="3" font-family="sans-serif">IS_COLUMN_OF_TABLE</text></g><g class="relationship" transform="translate(-336.7857974863413 68.13417286773618) rotate(394.5364158523371)"><path class="outline" fill="#A5ABB6" stroke="none" d="M 5 0.5 L 5.279624709865828 0.5 L 5.279624709865828 -0.5 L 5 -0.5 Z M 99.27962470986583 0.5 L 99.55924941973166 0.5 L 99.55924941973166 3.5 L 106.55924941973166 0 L 99.55924941973166 -3.5 L 99.55924941973166 -0.5 L 99.27962470986583 -0.5 Z"/><text text-anchor="middle" pointer-events="none" font-size="8px" fill="#000000" x="52.27962470986583" y="3" font-family="sans-serif">IS_COLUMN_OF_TABLE</text></g><g class="relationship" transform="translate(-335.51264287749063 201.09855087360665) rotate(324.7803664897323)"><path class="outline" fill="#A5ABB6" stroke="none" d="M 5 0.5 L 5.486844694145432 0.5 L 5.486844694145432 -0.5 L 5 -0.5 Z M 98.48684469414543 0.5 L 98.97368938829086 0.5 L 98.97368938829086 3.5 L 105.97368938829086 0 L 98.97368938829086 -3.5 L 98.97368938829086 -0.5 L 98.48684469414543 -0.5 Z"/><text text-anchor="middle" pointer-events="none" font-size="8px" fill="#000000" x="51.98684469414543" y="3" font-family="sans-serif">IS_COLUMN_OF_TAB…</text></g><g class="relationship" transform="translate(-290.8472750783698 32.19056112920765) rotate(423.8557588172158)"><path class="outline" fill="#A5ABB6" stroke="none" d="M 5 0.5 L 6.826303833818329 0.5 L 6.826303833818329 -0.5 L 5 -0.5 Z M 94.82630383381833 0.5 L 96.65260766763666 0.5 L 96.65260766763666 3.5 L 103.65260766763666 0 L 96.65260766763666 -3.5 L 96.65260766763666 -0.5 L 94.82630383381833 -0.5 Z"/><text text-anchor="middle" pointer-events="none" font-size="8px" fill="#000000" x="50.82630383381833" y="3" font-family="sans-serif">IS_COLUMN_OF_TA…</text></g><g class="relationship" transform="translate(-384.52344390297736 100.55764317646813) rotate(373.17732284241293)"><path class="outline" fill="#A5ABB6" stroke="none" d="M 5 0.5 L 20.821373541103043 0.5 L 20.821373541103043 -0.5 L 5 -0.5 Z M 114.82137354110304 0.5 L 130.64274708220609 0.5 L 130.64274708220609 3.5 L 137.64274708220609 0 L 130.64274708220609 -3.5 L 130.64274708220609 -0.5 L 114.82137354110304 -0.5 Z"/><text text-anchor="middle" pointer-events="none" font-size="8px" fill="#000000" x="67.82137354110304" y="3" font-family="sans-serif">IS_COLUMN_OF_TABLE</text></g><g class="relationship" transform="translate(-402.2623730419329 36.85198166679116) rotate(391.0853349632325)"><path class="outline" fill="#A5ABB6" stroke="none" d="M 5 0.5 L 41.28670251090274 0.5 L 41.28670251090274 -0.5 L 5 -0.5 Z M 135.28670251090273 0.5 L 171.57340502180548 0.5 L 171.57340502180548 3.5 L 178.57340502180548 0 L 171.57340502180548 -3.5 L 171.57340502180548 -0.5 L 135.28670251090273 -0.5 Z"/><text text-anchor="middle" pointer-events="none" font-size="8px" fill="#000000" x="88.28670251090274" y="3" font-family="sans-serif">IS_COLUMN_OF_TABLE</text></g><g class="relationship" transform="translate(-290.4389628806478 237.87534389867125) rotate(295.60226893681977)"><path class="outline" fill="#A5ABB6" stroke="none" d="M 5 0.5 L 7.473094621011725 0.5 L 7.473094621011725 -0.5 L 5 -0.5 Z M 95.47309462101173 0.5 L 97.94618924202345 0.5 L 97.94618924202345 3.5 L 104.94618924202345 0 L 97.94618924202345 -3.5 L 97.94618924202345 -0.5 L 95.47309462101173 -0.5 Z"/><text text-anchor="middle" pointer-events="none" font-size="8px" fill="#000000" x="51.473094621011725" y="3" font-family="sans-serif">IS_COLUMN_OF_TA…</text></g><g class="relationship" transform="translate(-352.42497294438573 259.21237154437154) rotate(311.7735640335837)"><path class="outline" fill="#A5ABB6" stroke="none" d="M 5 0.5 L 30.80265892152562 0.5 L 30.80265892152562 -0.5 L 5 -0.5 Z M 124.80265892152562 0.5 L 150.60531784305124 0.5 L 150.60531784305124 3.5 L 157.60531784305124 0 L 150.60531784305124 -3.5 L 150.60531784305124 -0.5 L 124.80265892152562 -0.5 Z"/><text text-anchor="middle" pointer-events="none" font-size="8px" fill="#000000" x="77.80265892152562" y="3" font-family="sans-serif">IS_COLUMN_OF_TABLE</text></g><g class="relationship" transform="translate(-434.0502269532557 92.07080263419394) rotate(372.3005685732134)"><path class="outline" fill="#A5ABB6" stroke="none" d="M 5 0.5 L 45.91165909595753 0.5 L 45.91165909595753 -0.5 L 5 -0.5 Z M 139.91165909595753 0.5 L 180.82331819191506 0.5 L 180.82331819191506 3.5 L 187.82331819191506 0 L 180.82331819191506 -3.5 L 180.82331819191506 -0.5 L 139.91165909595753 -0.5 Z"/><text text-anchor="middle" pointer-events="none" font-size="8px" fill="#000000" x="92.91165909595753" y="3" font-family="sans-serif">IS_COLUMN_OF_TABLE</text></g><g class="relationship" transform="translate(-405.8610398773236 229.03835835509346) rotate(330.12851664767305)"><path class="outline" fill="#A5ABB6" stroke="none" d="M 5 0.5 L 42.193330465687424 0.5 L 42.193330465687424 -0.5 L 5 -0.5 Z M 136.19333046568744 0.5 L 173.38666093137485 0.5 L 173.38666093137485 3.5 L 180.38666093137485 0 L 173.38666093137485 -3.5 L 173.38666093137485 -0.5 L 136.19333046568744 -0.5 Z"/><text text-anchor="middle" pointer-events="none" font-size="8px" fill="#000000" x="89.19333046568742" y="3" font-family="sans-serif">IS_COLUMN_OF_TABLE</text></g><g class="relationship" transform="translate(-350.87112548557934 7.891562969138783) rotate(408.9247778022444)"><path class="outline" fill="#A5ABB6" stroke="none" d="M 5 0.5 L 30.785857041648228 0.5 L 30.785857041648228 -0.5 L 5 -0.5 Z M 124.78585704164823 0.5 L 150.57171408329646 0.5 L 150.57171408329646 3.5 L 157.57171408329646 0 L 150.57171408329646 -3.5 L 150.57171408329646 -0.5 L 124.78585704164823 -0.5 Z"/><text text-anchor="middle" pointer-events="none" font-size="8px" fill="#000000" x="77.78585704164823" y="3" font-family="sans-serif">IS_COLUMN_OF_TABLE</text></g><g class="relationship" transform="translate(-438.1879358931698 155.9229388521654) rotate(353.72508886292076)"><path class="outline" fill="#A5ABB6" stroke="none" d="M 5 0.5 L 46.30478797038758 0.5 L 46.30478797038758 -0.5 L 5 -0.5 Z M 140.30478797038757 0.5 L 181.60957594077516 0.5 L 181.60957594077516 3.5 L 188.60957594077516 0 L 181.60957594077516 -3.5 L 181.60957594077516 -0.5 L 140.30478797038757 -0.5 Z"/><text text-anchor="middle" pointer-events="none" font-size="8px" fill="#000000" x="93.30478797038758" y="3" font-family="sans-serif">IS_COLUMN_OF_TABLE</text></g><g class="relationship" transform="translate(-89.69295988801699 525.8139545702513) rotate(275.6775655762391)"><path class="outline" fill="#A5ABB6" stroke="none" d="M 5 0.5 L 9.497361964748478 0.5 L 9.497361964748478 -0.5 L 5 -0.5 Z M 103.49736196474848 0.5 L 107.99472392949696 0.5 L 107.99472392949696 3.5 L 114.99472392949696 0 L 107.99472392949696 -3.5 L 107.99472392949696 -0.5 L 103.49736196474848 -0.5 Z"/><text text-anchor="middle" pointer-events="none" font-size="8px" fill="#000000" x="56.49736196474848" y="3" font-family="sans-serif">IS_COLUMN_OF_TABLE</text></g><g class="relationship" transform="translate(-29.971595580525612 505.5567435863046) rotate(245.54401745759566)"><path class="outline" fill="#A5ABB6" stroke="none" d="M 5 0.5 L 7.193601721418069 0.5 L 7.193601721418069 -0.5 L 5 -0.5 Z M 95.19360172141808 0.5 L 97.38720344283614 0.5 L 97.38720344283614 3.5 L 104.38720344283614 0 L 97.38720344283614 -3.5 L 97.38720344283614 -0.5 L 95.19360172141808 -0.5 Z"/><text text-anchor="middle" pointer-events="none" font-size="8px" fill="#000000" x="51.19360172141807" y="3" transform="rotate(180 51.19360172141807 0)" font-family="sans-serif">IS_COLUMN_OF_TA…</text></g><g class="relationship" transform="translate(-37.46258448787422 564.4063767611906) rotate(256.2549241599745)"><path class="outline" fill="#A5ABB6" stroke="none" d="M 5 0.5 L 30.889367214298076 0.5 L 30.889367214298076 -0.5 L 5 -0.5 Z M 124.88936721429808 0.5 L 150.77873442859615 0.5 L 150.77873442859615 3.5 L 157.77873442859615 0 L 150.77873442859615 -3.5 L 150.77873442859615 -0.5 L 124.88936721429808 -0.5 Z"/><text text-anchor="middle" pointer-events="none" font-size="8px" fill="#000000" x="77.88936721429808" y="3" transform="rotate(180 77.88936721429808 0)" font-family="sans-serif">IS_COLUMN_OF_TABLE</text></g><g class="relationship" transform="translate(-160.5248249083282 530.0670743704761) rotate(302.89375412475)"><path class="outline" fill="#A5ABB6" stroke="none" d="M 5 0.5 L 23.59751910775381 0.5 L 23.59751910775381 -0.5 L 5 -0.5 Z M 117.59751910775381 0.5 L 136.19503821550762 0.5 L 136.19503821550762 3.5 L 143.19503821550762 0 L 136.19503821550762 -3.5 L 136.19503821550762 -0.5 L 117.59751910775381 -0.5 Z"/><text text-anchor="middle" pointer-events="none" font-size="8px" fill="#000000" x="70.59751910775381" y="3" font-family="sans-serif">IS_COLUMN_OF_TABLE</text></g><g class="relationship" transform="translate(-91.94622685697964 588.0499381242767) rotate(274.47921751133543)"><path class="outline" fill="#A5ABB6" stroke="none" d="M 5 0.5 L 40.594629150157445 0.5 L 40.594629150157445 -0.5 L 5 -0.5 Z M 134.59462915015746 0.5 L 170.1892583003149 0.5 L 170.1892583003149 3.5 L 177.1892583003149 0 L 170.1892583003149 -3.5 L 170.1892583003149 -0.5 L 134.59462915015746 -0.5 Z"/><text text-anchor="middle" pointer-events="none" font-size="8px" fill="#000000" x="87.59462915015744" y="3" font-family="sans-serif">IS_COLUMN_OF_TABLE</text></g><g class="relationship" transform="translate(-131.25919008858585 480.9642107053053) rotate(304.1419149964422)"><path class="outline" fill="#A5ABB6" stroke="none" d="M 5 0.5 L 7.046762639841177 0.5 L 7.046762639841177 -0.5 L 5 -0.5 Z M 77.04676263984118 0.5 L 79.09352527968235 0.5 L 79.09352527968235 3.5 L 86.09352527968235 0 L 79.09352527968235 -3.5 L 79.09352527968235 -0.5 L 77.04676263984118 -0.5 Z"/><text text-anchor="middle" pointer-events="none" font-size="8px" fill="#000000" x="42.04676263984118" y="3" font-family="sans-serif">IS_COLUMN_O…</text></g><g class="relationship" transform="translate(-147.95521876526183 580.0899196105132) rotate(291.5701873645861)"><path class="outline" fill="#A5ABB6" stroke="none" d="M 5 0.5 L 43.05574105967685 0.5 L 43.05574105967685 -0.5 L 5 -0.5 Z M 137.05574105967685 0.5 L 175.1114821193537 0.5 L 175.1114821193537 3.5 L 182.1114821193537 0 L 175.1114821193537 -3.5 L 175.1114821193537 -0.5 L 137.05574105967685 -0.5 Z"/><text text-anchor="middle" pointer-events="none" font-size="8px" fill="#000000" x="90.05574105967685" y="3" font-family="sans-serif">IS_COLUMN_OF_TABLE</text></g><g class="relationship" transform="translate(-208.63538605845125 417.66637912538454) rotate(352.9521367379955)"><path class="outline" fill="#A5ABB6" stroke="none" d="M 5 0.5 L 13.153944086187366 0.5 L 13.153944086187366 -0.5 L 5 -0.5 Z M 107.15394408618737 0.5 L 115.30788817237473 0.5 L 115.30788817237473 3.5 L 122.30788817237473 0 L 115.30788817237473 -3.5 L 115.30788817237473 -0.5 L 107.15394408618737 -0.5 Z"/><text text-anchor="middle" pointer-events="none" font-size="8px" fill="#000000" x="60.153944086187366" y="3" font-family="sans-serif">IS_COLUMN_OF_TABLE</text></g><g class="relationship" transform="translate(-186.5419437065457 467.4580593680332) rotate(328.8449827288351)"><path class="outline" fill="#A5ABB6" stroke="none" d="M 5 0.5 L 10.810742518089 0.5 L 10.810742518089 -0.5 L 5 -0.5 Z M 104.810742518089 0.5 L 110.621485036178 0.5 L 110.621485036178 3.5 L 117.621485036178 0 L 110.621485036178 -3.5 L 110.621485036178 -0.5 L 104.810742518089 -0.5 Z"/><text text-anchor="middle" pointer-events="none" font-size="8px" fill="#000000" x="57.810742518089" y="3" font-family="sans-serif">IS_COLUMN_OF_TABLE</text></g><g class="relationship" transform="translate(-213.45461011591897 538.2634842467064) rotate(314.85229250389784)"><path class="outline" fill="#A5ABB6" stroke="none" d="M 5 0.5 L 43.505713619149006 0.5 L 43.505713619149006 -0.5 L 5 -0.5 Z M 137.505713619149 0.5 L 176.011427238298 0.5 L 176.011427238298 3.5 L 183.011427238298 0 L 176.011427238298 -3.5 L 176.011427238298 -0.5 L 137.505713619149 -0.5 Z"/><text text-anchor="middle" pointer-events="none" font-size="8px" fill="#000000" x="90.505713619149" y="3" font-family="sans-serif">IS_COLUMN_OF_TABLE</text></g><g class="relationship" transform="translate(-240.166772458804 478.85156833352573) rotate(334.5720826952115)"><path class="outline" fill="#A5ABB6" stroke="none" d="M 5 0.5 L 37.15326889872931 0.5 L 37.15326889872931 -0.5 L 5 -0.5 Z M 131.15326889872932 0.5 L 163.30653779745862 0.5 L 163.30653779745862 3.5 L 170.30653779745862 0 L 163.30653779745862 -3.5 L 163.30653779745862 -0.5 L 131.15326889872932 -0.5 Z"/><text text-anchor="middle" pointer-events="none" font-size="8px" fill="#000000" x="84.15326889872931" y="3" font-family="sans-serif">IS_COLUMN_OF_TABLE</text></g><g class="relationship" transform="translate(487.65443666965575 43.02010024316694) rotate(501.0274151206561)"><path class="outline" fill="#A5ABB6" stroke="none" d="M 5 0.5 L 5.344016164057862 0.5 L 5.344016164057862 -0.5 L 5 -0.5 Z M 98.34401616405786 0.5 L 98.68803232811572 0.5 L 98.68803232811572 3.5 L 105.68803232811572 0 L 98.68803232811572 -3.5 L 98.68803232811572 -0.5 L 98.34401616405786 -0.5 Z"/><text text-anchor="middle" pointer-events="none" font-size="8px" fill="#000000" x="51.84401616405786" y="3" transform="rotate(180 51.84401616405786 0)" font-family="sans-serif">IS_COLUMN_OF_TAB…</text></g><g class="relationship" transform="translate(461.15313870934756 201.92517496242831) rotate(233.63029426574371)"><path class="outline" fill="#A5ABB6" stroke="none" d="M 5 0.5 L 5.491348449320505 0.5 L 5.491348449320505 -0.5 L 5 -0.5 Z M 89.4913484493205 0.5 L 89.98269689864101 0.5 L 89.98269689864101 3.5 L 96.98269689864101 0 L 89.98269689864101 -3.5 L 89.98269689864101 -0.5 L 89.4913484493205 -0.5 Z"/><text text-anchor="middle" pointer-events="none" font-size="8px" fill="#000000" x="47.491348449320505" y="3" transform="rotate(180 47.491348449320505 0)" font-family="sans-serif">IS_COLUMN_OF_T…</text></g><g class="relationship" transform="translate(539.4582287463994 66.60616053077153) rotate(520.8667618954687)"><path class="outline" fill="#A5ABB6" stroke="none" d="M 5 0.5 L 22.01654678753023 0.5 L 22.01654678753023 -0.5 L 5 -0.5 Z M 116.01654678753023 0.5 L 133.03309357506046 0.5 L 133.03309357506046 3.5 L 140.03309357506046 0 L 133.03309357506046 -3.5 L 133.03309357506046 -0.5 L 116.01654678753023 -0.5 Z"/><text text-anchor="middle" pointer-events="none" font-size="8px" fill="#000000" x="69.01654678753023" y="3" transform="rotate(180 69.01654678753023 0)" font-family="sans-serif">IS_COLUMN_OF_TABLE</text></g><g class="relationship" transform="translate(501.92316581080576 111.77569432423377) rotate(537.7984240909386)"><path class="outline" fill="#A5ABB6" stroke="none" d="M 5 0.5 L 6.643510160692102 0.5 L 6.643510160692102 -0.5 L 5 -0.5 Z M 85.6435101606921 0.5 L 87.2870203213842 0.5 L 87.2870203213842 3.5 L 94.2870203213842 0 L 87.2870203213842 -3.5 L 87.2870203213842 -0.5 L 85.6435101606921 -0.5 Z"/><text text-anchor="middle" pointer-events="none" font-size="8px" fill="#000000" x="46.1435101606921" y="3" transform="rotate(180 46.1435101606921 0)" font-family="sans-serif">IS_COLUMN_OF_…</text></g><g class="relationship" transform="translate(504.7579139283275 -19.36687144706243) rotate(488.381035699593)"><path class="outline" fill="#A5ABB6" stroke="none" d="M 5 0.5 L 33.20292980035542 0.5 L 33.20292980035542 -0.5 L 5 -0.5 Z M 127.20292980035542 0.5 L 155.40585960071084 0.5 L 155.40585960071084 3.5 L 162.40585960071084 0 L 155.40585960071084 -3.5 L 155.40585960071084 -0.5 L 127.20292980035542 -0.5 Z"/><text text-anchor="middle" pointer-events="none" font-size="8px" fill="#000000" x="80.20292980035542" y="3" transform="rotate(180 80.20292980035542 0)" font-family="sans-serif">IS_COLUMN_OF_TABLE</text></g><g class="relationship" transform="translate(557.0135578300225 6.66899358262082) rotate(505.59078571143027)"><path class="outline" fill="#A5ABB6" stroke="none" d="M 5 0.5 L 43.54306935633117 0.5 L 43.54306935633117 -0.5 L 5 -0.5 Z M 137.54306935633116 0.5 L 176.08613871266235 0.5 L 176.08613871266235 3.5 L 183.08613871266235 0 L 176.08613871266235 -3.5 L 176.08613871266235 -0.5 L 137.54306935633116 -0.5 Z"/><text text-anchor="middle" pointer-events="none" font-size="8px" fill="#000000" x="90.54306935633117" y="3" transform="rotate(180 90.54306935633117 0)" font-family="sans-serif">IS_COLUMN_OF_TABLE</text></g><g class="relationship" transform="translate(448.4726223503911 3.8345789816442446) rotate(474.3906341018394)"><path class="outline" fill="#A5ABB6" stroke="none" d="M 5 0.5 L 8.45879064763276 0.5 L 8.45879064763276 -0.5 L 5 -0.5 Z M 102.45879064763275 0.5 L 105.91758129526552 0.5 L 105.91758129526552 3.5 L 112.91758129526552 0 L 105.91758129526552 -3.5 L 105.91758129526552 -0.5 L 102.45879064763275 -0.5 Z"/><text text-anchor="middle" pointer-events="none" font-size="8px" fill="#000000" x="55.45879064763276" y="3" transform="rotate(180 55.45879064763276 0)" font-family="sans-serif">IS_COLUMN_OF_TABLE</text></g><g class="relationship" transform="translate(557.5222555308424 140.49912744223775) rotate(188.7921063636702)"><path class="outline" fill="#A5ABB6" stroke="none" d="M 5 0.5 L 27.854652544634433 0.5 L 27.854652544634433 -0.5 L 5 -0.5 Z M 121.85465254463443 0.5 L 144.70930508926887 0.5 L 144.70930508926887 3.5 L 151.70930508926887 0 L 144.70930508926887 -3.5 L 144.70930508926887 -0.5 L 121.85465254463443 -0.5 Z"/><text text-anchor="middle" pointer-events="none" font-size="8px" fill="#000000" x="74.85465254463443" y="3" transform="rotate(180 74.85465254463443 0)" font-family="sans-serif">IS_COLUMN_OF_TABLE</text></g><g class="relationship" transform="translate(537.343976731031 233.5282508045103) rotate(220.13989018095663)"><path class="outline" fill="#A5ABB6" stroke="none" d="M 5 0.5 L 38.32493586420469 0.5 L 38.32493586420469 -0.5 L 5 -0.5 Z M 132.3249358642047 0.5 L 165.64987172840938 0.5 L 165.64987172840938 3.5 L 172.64987172840938 0 L 165.64987172840938 -3.5 L 165.64987172840938 -0.5 L 132.3249358642047 -0.5 Z"/><text text-anchor="middle" pointer-events="none" font-size="8px" fill="#000000" x="85.32493586420469" y="3" transform="rotate(180 85.32493586420469 0)" font-family="sans-serif">IS_COLUMN_OF_TABLE</text></g><g class="relationship" transform="translate(602.4691379871568 121.33327509332537) rotate(181.55302809841953)"><path class="outline" fill="#A5ABB6" stroke="none" d="M 5 0.5 L 49.41562741295432 0.5 L 49.41562741295432 -0.5 L 5 -0.5 Z M 143.41562741295434 0.5 L 187.83125482590864 0.5 L 187.83125482590864 3.5 L 194.83125482590864 0 L 187.83125482590864 -3.5 L 187.83125482590864 -0.5 L 143.41562741295434 -0.5 Z"/><text text-anchor="middle" pointer-events="none" font-size="8px" fill="#000000" x="96.41562741295432" y="3" transform="rotate(180 96.41562741295432 0)" font-family="sans-serif">IS_COLUMN_OF_TABLE</text></g><g class="relationship" transform="translate(485.6843296309541 251.02306591320848) rotate(236.9569403187727)"><path class="outline" fill="#A5ABB6" stroke="none" d="M 5 0.5 L 27.667687254333003 0.5 L 27.667687254333003 -0.5 L 5 -0.5 Z M 121.667687254333 0.5 L 144.335374508666 0.5 L 144.335374508666 3.5 L 151.335374508666 0 L 144.335374508666 -3.5 L 144.335374508666 -0.5 L 121.667687254333 -0.5 Z"/><text text-anchor="middle" pointer-events="none" font-size="8px" fill="#000000" x="74.667687254333" y="3" transform="rotate(180 74.667687254333 0)" font-family="sans-serif">IS_COLUMN_OF_TABLE</text></g><g class="relationship" transform="translate(512.4261038307807 174.55179015640286) rotate(207.1270207627624)"><path class="outline" fill="#A5ABB6" stroke="none" d="M 5 0.5 L 11.445648578378737 0.5 L 11.445648578378737 -0.5 L 5 -0.5 Z M 105.44564857837874 0.5 L 111.89129715675747 0.5 L 111.89129715675747 3.5 L 118.89129715675747 0 L 111.89129715675747 -3.5 L 111.89129715675747 -0.5 L 105.44564857837874 -0.5 Z"/><text text-anchor="middle" pointer-events="none" font-size="8px" fill="#000000" x="58.44564857837874" y="3" transform="rotate(180 58.44564857837874 0)" font-family="sans-serif">IS_COLUMN_OF_TABLE</text></g><g class="relationship" transform="translate(580.5859100038545 195.62273065285444) rotate(203.58570307023922)"><path class="outline" fill="#A5ABB6" stroke="none" d="M 5 0.5 L 46.771003315971626 0.5 L 46.771003315971626 -0.5 L 5 -0.5 Z M 140.77100331597163 0.5 L 182.54200663194325 0.5 L 182.54200663194325 3.5 L 189.54200663194325 0 L 182.54200663194325 -3.5 L 182.54200663194325 -0.5 L 140.77100331597163 -0.5 Z"/><text text-anchor="middle" pointer-events="none" font-size="8px" fill="#000000" x="93.77100331597163" y="3" transform="rotate(180 93.77100331597163 0)" font-family="sans-serif">IS_COLUMN_OF_TABLE</text></g><g class="relationship" transform="translate(592.576054483013 61.35672304610415) rotate(524.3949593865364)"><path class="outline" fill="#A5ABB6" stroke="none" d="M 5 0.5 L 48.160346460335276 0.5 L 48.160346460335276 -0.5 L 5 -0.5 Z M 142.1603464603353 0.5 L 185.32069292067055 0.5 L 185.32069292067055 3.5 L 192.32069292067055 0 L 185.32069292067055 -3.5 L 185.32069292067055 -0.5 L 142.1603464603353 -0.5 Z"/><text text-anchor="middle" pointer-events="none" font-size="8px" fill="#000000" x="95.16034646033528" y="3" transform="rotate(180 95.16034646033528 0)" font-family="sans-serif">IS_COLUMN_OF_TABLE</text></g><g class="relationship" transform="translate(154.93740757393277 254.75515368564407) rotate(280.27087682675614)"><path class="outline" fill="#A5ABB6" stroke="none" d="M 5 0.5 L 5.934656107513405 0.5 L 5.934656107513405 -0.5 L 5 -0.5 Z M 69.9346561075134 0.5 L 70.86931221502681 0.5 L 70.86931221502681 3.5 L 77.86931221502681 0 L 70.86931221502681 -3.5 L 70.86931221502681 -0.5 L 69.9346561075134 -0.5 Z"/><text text-anchor="middle" pointer-events="none" font-size="8px" fill="#000000" x="37.934656107513405" y="3" font-family="sans-serif">IS_COLUMN_…</text></g><g class="relationship" transform="translate(275.4703482989722 170.00886454731915) rotate(180.93693942955684)"><path class="outline" fill="#A5ABB6" stroke="none" d="M 5 0.5 L 6.939840760408018 0.5 L 6.939840760408018 -0.5 L 5 -0.5 Z M 85.93984076040802 0.5 L 87.87968152081604 0.5 L 87.87968152081604 3.5 L 94.87968152081604 0 L 87.87968152081604 -3.5 L 87.87968152081604 -0.5 L 85.93984076040802 -0.5 Z"/><text text-anchor="middle" pointer-events="none" font-size="8px" fill="#000000" x="46.43984076040802" y="3" transform="rotate(180 46.43984076040802 0)" font-family="sans-serif">IS_COLUMN_OF_…</text></g><g class="relationship" transform="translate(198.05560591267437 85.79693814143876) rotate(468.4049007876052)"><path class="outline" fill="#A5ABB6" stroke="none" d="M 5 0.5 L 5.472111153059494 0.5 L 5.472111153059494 -0.5 L 5 -0.5 Z M 69.4721111530595 0.5 L 69.94422230611899 0.5 L 69.94422230611899 3.5 L 76.94422230611899 0 L 69.94422230611899 -3.5 L 69.94422230611899 -0.5 L 69.4721111530595 -0.5 Z"/><text text-anchor="middle" pointer-events="none" font-size="8px" fill="#000000" x="37.472111153059494" y="3" transform="rotate(180 37.472111153059494 0)" font-family="sans-serif">IS_COLUMN_…</text></g><g class="relationship" transform="translate(261.7700398290202 109.99757500161405) rotate(507.4028421474534)"><path class="outline" fill="#A5ABB6" stroke="none" d="M 5 0.5 L 6.105406344050579 0.5 L 6.105406344050579 -0.5 L 5 -0.5 Z M 90.10540634405058 0.5 L 91.21081268810116 0.5 L 91.21081268810116 3.5 L 98.21081268810116 0 L 91.21081268810116 -3.5 L 91.21081268810116 -0.5 L 90.10540634405058 -0.5 Z"/><text text-anchor="middle" pointer-events="none" font-size="8px" fill="#000000" x="48.10540634405058" y="3" transform="rotate(180 48.10540634405058 0)" font-family="sans-serif">IS_COLUMN_OF_T…</text></g><g class="relationship" transform="translate(228.66905069906178 252.60524531674744) rotate(235.44522009923674)"><path class="outline" fill="#A5ABB6" stroke="none" d="M 5 0.5 L 5.685634762209425 0.5 L 5.685634762209425 -0.5 L 5 -0.5 Z M 84.68563476220942 0.5 L 85.37126952441885 0.5 L 85.37126952441885 3.5 L 92.37126952441885 0 L 85.37126952441885 -3.5 L 85.37126952441885 -0.5 L 84.68563476220942 -0.5 Z"/><text text-anchor="middle" pointer-events="none" font-size="8px" fill="#000000" x="45.185634762209425" y="3" transform="rotate(180 45.185634762209425 0)" font-family="sans-serif">IS_COLUMN_OF_…</text></g><g class="relationship" transform="translate(282.0418720792473 228.50373093695288) rotate(208.38248954517007)"><path class="outline" fill="#A5ABB6" stroke="none" d="M 5 0.5 L 10.331414308435434 0.5 L 10.331414308435434 -0.5 L 5 -0.5 Z M 104.33141430843543 0.5 L 109.66282861687087 0.5 L 109.66282861687087 3.5 L 116.66282861687087 0 L 109.66282861687087 -3.5 L 109.66282861687087 -0.5 L 104.33141430843543 -0.5 Z"/><text text-anchor="middle" pointer-events="none" font-size="8px" fill="#000000" x="57.331414308435434" y="3" transform="rotate(180 57.331414308435434 0)" font-family="sans-serif">IS_COLUMN_OF_TABLE</text></g><g class="relationship" transform="translate(55.44723438806507 -155.56691616424524) rotate(372.1184328238236)"><path class="outline" fill="#A5ABB6" stroke="none" d="M 5 0.5 L 7.367788310127182 0.5 L 7.367788310127182 -0.5 L 5 -0.5 Z M 71.36778831012718 0.5 L 73.73557662025436 0.5 L 73.73557662025436 3.5 L 80.73557662025436 0 L 73.73557662025436 -3.5 L 73.73557662025436 -0.5 L 71.36778831012718 -0.5 Z"/><text text-anchor="middle" pointer-events="none" font-size="8px" fill="#000000" x="39.36778831012718" y="3" font-family="sans-serif">IS_COLUMN_…</text></g><g class="relationship" transform="translate(266.4164348080287 -115.53058618124311) rotate(189.7411565737304)"><path class="outline" fill="#A5ABB6" stroke="none" d="M 5 0.5 L 9.022021050018807 0.5 L 9.022021050018807 -0.5 L 5 -0.5 Z M 103.02202105001881 0.5 L 107.04404210003761 0.5 L 107.04404210003761 3.5 L 114.04404210003761 0 L 107.04404210003761 -3.5 L 107.04404210003761 -0.5 L 103.02202105001881 -0.5 Z"/><text text-anchor="middle" pointer-events="none" font-size="8px" fill="#000000" x="56.02202105001881" y="3" transform="rotate(180 56.02202105001881 0)" font-family="sans-serif">IS_COLUMN_OF_TABLE</text></g><g class="relationship" transform="translate(225.70438968422943 -175.40225078449697) rotate(514.5060349707865)"><path class="outline" fill="#A5ABB6" stroke="none" d="M 5 0.5 L 7.169945914812281 0.5 L 7.169945914812281 -0.5 L 5 -0.5 Z M 71.16994591481227 0.5 L 73.33989182962456 0.5 L 73.33989182962456 3.5 L 80.33989182962456 0 L 73.33989182962456 -3.5 L 73.33989182962456 -0.5 L 71.16994591481227 -0.5 Z"/><text text-anchor="middle" pointer-events="none" font-size="8px" fill="#000000" x="39.16994591481228" y="3" transform="rotate(180 39.16994591481228 0)" font-family="sans-serif">IS_COLUMN_…</text></g><g class="relationship" transform="translate(212.89787154648332 -84.2882207463173) rotate(217.22962730026973)"><path class="outline" fill="#A5ABB6" stroke="none" d="M 5 0.5 L 5.164752584335147 0.5 L 5.164752584335147 -0.5 L 5 -0.5 Z M 69.16475258433515 0.5 L 69.3295051686703 0.5 L 69.3295051686703 3.5 L 76.3295051686703 0 L 69.3295051686703 -3.5 L 69.3295051686703 -0.5 L 69.16475258433515 -0.5 Z"/><text text-anchor="middle" pointer-events="none" font-size="8px" fill="#000000" x="37.16475258433515" y="3" transform="rotate(180 37.16475258433515 0)" font-family="sans-serif">IS_COLUMN_…</text></g><g class="relationship" transform="translate(303.88481257027513 -249.61455147730487) rotate(504.6987673461641)"><path class="outline" fill="#A5ABB6" stroke="none" d="M 5 0.5 L 44.85507429112438 0.5 L 44.85507429112438 -0.5 L 5 -0.5 Z M 138.85507429112437 0.5 L 178.71014858224876 0.5 L 178.71014858224876 3.5 L 185.71014858224876 0 L 178.71014858224876 -3.5 L 178.71014858224876 -0.5 L 138.85507429112437 -0.5 Z"/><text text-anchor="middle" pointer-events="none" font-size="8px" fill="#000000" x="91.85507429112438" y="3" transform="rotate(180 91.85507429112438 0)" font-family="sans-serif">IS_COLUMN_OF_TABLE</text></g><g class="relationship" transform="translate(38.62817551602267 -267.4136050667827) rotate(411.1229032629096)"><path class="outline" fill="#A5ABB6" stroke="none" d="M 5 0.5 L 31.06941703807641 0.5 L 31.06941703807641 -0.5 L 5 -0.5 Z M 125.06941703807641 0.5 L 151.13883407615282 0.5 L 151.13883407615282 3.5 L 158.13883407615282 0 L 151.13883407615282 -3.5 L 151.13883407615282 -0.5 L 125.06941703807641 -0.5 Z"/><text text-anchor="middle" pointer-events="none" font-size="8px" fill="#000000" x="78.06941703807641" y="3" font-family="sans-serif">IS_COLUMN_OF_TABLE</text></g><g class="relationship" transform="translate(288.55579980195114 -162.45642268879052) rotate(529.8164687822573)"><path class="outline" fill="#A5ABB6" stroke="none" d="M 5 0.5 L 20.35305124836235 0.5 L 20.35305124836235 -0.5 L 5 -0.5 Z M 114.35305124836235 0.5 L 129.7061024967247 0.5 L 129.7061024967247 3.5 L 136.7061024967247 0 L 129.7061024967247 -3.5 L 129.7061024967247 -0.5 L 114.35305124836235 -0.5 Z"/><text text-anchor="middle" pointer-events="none" font-size="8px" fill="#000000" x="67.35305124836235" y="3" transform="rotate(180 67.35305124836235 0)" font-family="sans-serif">IS_COLUMN_OF_TABLE</text></g><g class="relationship" transform="translate(40.44098272784486 -214.48910338294368) rotate(396.9337289874219)"><path class="outline" fill="#A5ABB6" stroke="none" d="M 5 0.5 L 11.879158752397458 0.5 L 11.879158752397458 -0.5 L 5 -0.5 Z M 105.87915875239746 0.5 L 112.75831750479492 0.5 L 112.75831750479492 3.5 L 119.75831750479492 0 L 112.75831750479492 -3.5 L 112.75831750479492 -0.5 L 105.87915875239746 -0.5 Z"/><text text-anchor="middle" pointer-events="none" font-size="8px" fill="#000000" x="58.87915875239746" y="3" font-family="sans-serif">IS_COLUMN_OF_TABLE</text></g><g class="relationship" transform="translate(99.31925428585589 -278.3908370681893) rotate(432.45981839449036)"><path class="outline" fill="#A5ABB6" stroke="none" d="M 5 0.5 L 21.395100078572455 0.5 L 21.395100078572455 -0.5 L 5 -0.5 Z M 115.39510007857245 0.5 L 131.7902001571449 0.5 L 131.7902001571449 3.5 L 138.7902001571449 0 L 131.7902001571449 -3.5 L 131.7902001571449 -0.5 L 115.39510007857245 -0.5 Z"/><text text-anchor="middle" pointer-events="none" font-size="8px" fill="#000000" x="68.39510007857245" y="3" font-family="sans-serif">IS_COLUMN_OF_TABLE</text></g><g class="relationship" transform="translate(105.3574420669982 -221.9187556525854) rotate(425.56432903529895)"><path class="outline" fill="#A5ABB6" stroke="none" d="M 5 0.5 L 5.901238699831723 0.5 L 5.901238699831723 -0.5 L 5 -0.5 Z M 75.90123869983172 0.5 L 76.80247739966345 0.5 L 76.80247739966345 3.5 L 83.80247739966345 0 L 76.80247739966345 -3.5 L 76.80247739966345 -0.5 L 75.90123869983172 -0.5 Z"/><text text-anchor="middle" pointer-events="none" font-size="8px" fill="#000000" x="40.90123869983172" y="3" font-family="sans-serif">IS_COLUMN_O…</text></g><g class="relationship" transform="translate(70.52222272714685 -322.8177295796834) rotate(428.4325666977844)"><path class="outline" fill="#A5ABB6" stroke="none" d="M 5 0.5 L 47.162422243598925 0.5 L 47.162422243598925 -0.5 L 5 -0.5 Z M 141.16242224359894 0.5 L 183.32484448719785 0.5 L 183.32484448719785 3.5 L 190.32484448719785 0 L 183.32484448719785 -3.5 L 183.32484448719785 -0.5 L 141.16242224359894 -0.5 Z"/><text text-anchor="middle" pointer-events="none" font-size="8px" fill="#000000" x="94.16242224359893" y="3" font-family="sans-serif">IS_COLUMN_OF_TABLE</text></g><g class="relationship" transform="translate(220.29629582200442 -274.6404413404715) rotate(478.86439783785664)"><path class="outline" fill="#A5ABB6" stroke="none" d="M 5 0.5 L 25.857902353551694 0.5 L 25.857902353551694 -0.5 L 5 -0.5 Z M 119.8579023535517 0.5 L 140.7158047071034 0.5 L 140.7158047071034 3.5 L 147.7158047071034 0 L 140.7158047071034 -3.5 L 140.7158047071034 -0.5 L 119.8579023535517 -0.5 Z"/><text text-anchor="middle" pointer-events="none" font-size="8px" fill="#000000" x="72.8579023535517" y="3" transform="rotate(180 72.8579023535517 0)" font-family="sans-serif">IS_COLUMN_OF_TABLE</text></g><g class="relationship" transform="translate(249.2674614350456 -225.61947956227448) rotate(499.7113957859323)"><path class="outline" fill="#A5ABB6" stroke="none" d="M 5 0.5 L 15.895545396217074 0.5 L 15.895545396217074 -0.5 L 5 -0.5 Z M 109.89554539621707 0.5 L 120.79109079243415 0.5 L 120.79109079243415 3.5 L 127.79109079243415 0 L 120.79109079243415 -3.5 L 120.79109079243415 -0.5 L 109.89554539621707 -0.5 Z"/><text text-anchor="middle" pointer-events="none" font-size="8px" fill="#000000" x="62.895545396217074" y="3" transform="rotate(180 62.895545396217074 0)" font-family="sans-serif">IS_COLUMN_OF_TABLE</text></g><g class="relationship" transform="translate(319.68276103544287 -200.42541434300648) rotate(519.993617125629)"><path class="outline" fill="#A5ABB6" stroke="none" d="M 5 0.5 L 40.397052814314065 0.5 L 40.397052814314065 -0.5 L 5 -0.5 Z M 134.39705281431407 0.5 L 169.79410562862813 0.5 L 169.79410562862813 3.5 L 176.79410562862813 0 L 169.79410562862813 -3.5 L 169.79410562862813 -0.5 L 134.39705281431407 -0.5 Z"/><text text-anchor="middle" pointer-events="none" font-size="8px" fill="#000000" x="87.39705281431407" y="3" transform="rotate(180 87.39705281431407 0)" font-family="sans-serif">IS_COLUMN_OF_TABLE</text></g><g class="relationship" transform="translate(174.20302355202472 -233.2051913937409) rotate(467.26090382066803)"><path class="outline" fill="#A5ABB6" stroke="none" d="M 5 0.5 L 5.1232324343407 0.5 L 5.1232324343407 -0.5 L 5 -0.5 Z M 84.12323243434071 0.5 L 84.2464648686814 0.5 L 84.2464648686814 3.5 L 91.2464648686814 0 L 84.2464648686814 -3.5 L 84.2464648686814 -0.5 L 84.12323243434071 -0.5 Z"/><text text-anchor="middle" pointer-events="none" font-size="8px" fill="#000000" x="44.6232324343407" y="3" transform="rotate(180 44.6232324343407 0)" font-family="sans-serif">IS_COLUMN_OF_…</text></g><g class="relationship" transform="translate(156.158057477579 -291.6047555692876) rotate(454.42349898981456)"><path class="outline" fill="#A5ABB6" stroke="none" d="M 5 0.5 L 24.774796274895266 0.5 L 24.774796274895266 -0.5 L 5 -0.5 Z M 118.77479627489527 0.5 L 138.54959254979053 0.5 L 138.54959254979053 3.5 L 145.54959254979053 0 L 138.54959254979053 -3.5 L 138.54959254979053 -0.5 L 118.77479627489527 -0.5 Z"/><text text-anchor="middle" pointer-events="none" font-size="8px" fill="#000000" x="71.77479627489527" y="3" transform="rotate(180 71.77479627489527 0)" font-family="sans-serif">IS_COLUMN_OF_TABLE</text></g><g class="relationship" transform="translate(282.41745403285574 -296.6010339379543) rotate(490.81580788293866)"><path class="outline" fill="#A5ABB6" stroke="none" d="M 5 0.5 L 52.760703423507124 0.5 L 52.760703423507124 -0.5 L 5 -0.5 Z M 146.76070342350712 0.5 L 194.52140684701425 0.5 L 194.52140684701425 3.5 L 201.52140684701425 0 L 194.52140684701425 -3.5 L 194.52140684701425 -0.5 L 146.76070342350712 -0.5 Z"/><text text-anchor="middle" pointer-events="none" font-size="8px" fill="#000000" x="99.76070342350712" y="3" transform="rotate(180 99.76070342350712 0)" font-family="sans-serif">IS_COLUMN_OF_TABLE</text></g><g class="relationship" transform="translate(127.06744463421172 -345.21086727635316) rotate(445.31751963651726)"><path class="outline" fill="#A5ABB6" stroke="none" d="M 5 0.5 L 51.69560940594468 0.5 L 51.69560940594468 -0.5 L 5 -0.5 Z M 145.69560940594468 0.5 L 192.39121881188936 0.5 L 192.39121881188936 3.5 L 199.39121881188936 0 L 192.39121881188936 -3.5 L 192.39121881188936 -0.5 L 145.69560940594468 -0.5 Z"/><text text-anchor="middle" pointer-events="none" font-size="8px" fill="#000000" x="98.69560940594468" y="3" font-family="sans-serif">IS_COLUMN_OF_TABLE</text></g><g class="relationship" transform="translate(237.11127443912613 -330.59057244810356) rotate(475.5920006698068)"><path class="outline" fill="#A5ABB6" stroke="none" d="M 5 0.5 L 54.591528354111205 0.5 L 54.591528354111205 -0.5 L 5 -0.5 Z M 148.5915283541112 0.5 L 198.1830567082224 0.5 L 198.1830567082224 3.5 L 205.1830567082224 0 L 198.1830567082224 -3.5 L 198.1830567082224 -0.5 L 148.5915283541112 -0.5 Z"/><text text-anchor="middle" pointer-events="none" font-size="8px" fill="#000000" x="101.5915283541112" y="3" transform="rotate(180 101.5915283541112 0)" font-family="sans-serif">IS_COLUMN_OF_TABLE</text></g><g class="relationship" transform="translate(184.75147794557947 -338.77473523042244) rotate(461.3478974514627)"><path class="outline" fill="#A5ABB6" stroke="none" d="M 5 0.5 L 50.14453370354717 0.5 L 50.14453370354717 -0.5 L 5 -0.5 Z M 144.14453370354715 0.5 L 189.28906740709434 0.5 L 189.28906740709434 3.5 L 196.28906740709434 0 L 189.28906740709434 -3.5 L 189.28906740709434 -0.5 L 144.14453370354715 -0.5 Z"/><text text-anchor="middle" pointer-events="none" font-size="8px" fill="#000000" x="97.14453370354717" y="3" transform="rotate(180 97.14453370354717 0)" font-family="sans-serif">IS_COLUMN_OF_TABLE</text></g><g class="relationship" transform="translate(-124.49811466911714 79.07680951311676) rotate(346.590105939586)"><path class="outline" fill="#A5ABB6" stroke="none" d="M 5 0.5 L 5.017755555743101 0.5 L 5.017755555743101 -0.5 L 5 -0.5 Z M 75.0177555557431 0.5 L 75.0355111114862 0.5 L 75.0355111114862 3.5 L 82.0355111114862 0 L 75.0355111114862 -3.5 L 75.0355111114862 -0.5 L 75.0177555557431 -0.5 Z"/><text text-anchor="middle" pointer-events="none" font-size="8px" fill="#000000" x="40.0177555557431" y="3" font-family="sans-serif">IS_COLUMN_O…</text></g><g class="relationship" transform="translate(-95.67905723410746 -32.72639077762244) rotate(416.13428647898235)"><path class="outline" fill="#A5ABB6" stroke="none" d="M 5 0.5 L 6.470494598724194 0.5 L 6.470494598724194 -0.5 L 5 -0.5 Z M 90.4704945987242 0.5 L 91.94098919744839 0.5 L 91.94098919744839 3.5 L 98.94098919744839 0 L 91.94098919744839 -3.5 L 91.94098919744839 -0.5 L 90.4704945987242 -0.5 Z"/><text text-anchor="middle" pointer-events="none" font-size="8px" fill="#000000" x="48.470494598724194" y="3" font-family="sans-serif">IS_COLUMN_OF_T…</text></g><g class="relationship" transform="translate(-138.50254480410632 8.384496929751666) rotate(385.4847679454432)"><path class="outline" fill="#A5ABB6" stroke="none" d="M 5 0.5 L 7.345023129845799 0.5 L 7.345023129845799 -0.5 L 5 -0.5 Z M 95.3450231298458 0.5 L 97.6900462596916 0.5 L 97.6900462596916 3.5 L 104.6900462596916 0 L 97.6900462596916 -3.5 L 97.6900462596916 -0.5 L 95.3450231298458 -0.5 Z"/><text text-anchor="middle" pointer-events="none" font-size="8px" fill="#000000" x="51.3450231298458" y="3" font-family="sans-serif">IS_COLUMN_OF_TA…</text></g><g class="relationship" transform="translate(-25.606833387727058 -31.531390685461542) rotate(455.98923727800246)"><path class="outline" fill="#A5ABB6" stroke="none" d="M 5 0.5 L 6.876811187158495 0.5 L 6.876811187158495 -0.5 L 5 -0.5 Z M 70.8768111871585 0.5 L 72.75362237431699 0.5 L 72.75362237431699 3.5 L 79.75362237431699 0 L 72.75362237431699 -3.5 L 72.75362237431699 -0.5 L 70.8768111871585 -0.5 Z"/><text text-anchor="middle" pointer-events="none" font-size="8px" fill="#000000" x="38.876811187158495" y="3" transform="rotate(180 38.876811187158495 0)" font-family="sans-serif">IS_COLUMN_…</text></g><g class="relationship" transform="translate(-252.95902884703497 -163.31172757966206) rotate(381.58280312275656)"><path class="outline" fill="#A5ABB6" stroke="none" d="M 5 0.5 L 8.062148124564281 0.5 L 8.062148124564281 -0.5 L 5 -0.5 Z M 102.06214812456429 0.5 L 105.12429624912856 0.5 L 105.12429624912856 3.5 L 112.12429624912856 0 L 105.12429624912856 -3.5 L 105.12429624912856 -0.5 L 102.06214812456429 -0.5 Z"/><text text-anchor="middle" pointer-events="none" font-size="8px" fill="#000000" x="55.06214812456428" y="3" font-family="sans-serif">IS_COLUMN_OF_TABLE</text></g><g class="relationship" transform="translate(-273.80405012096287 -241.42871770533336) rotate(402.4718822188638)"><path class="outline" fill="#A5ABB6" stroke="none" d="M 5 0.5 L 38.10982001279281 0.5 L 38.10982001279281 -0.5 L 5 -0.5 Z M 132.1098200127928 0.5 L 165.21964002558562 0.5 L 165.21964002558562 3.5 L 172.21964002558562 0 L 165.21964002558562 -3.5 L 165.21964002558562 -0.5 L 132.1098200127928 -0.5 Z"/><text text-anchor="middle" pointer-events="none" font-size="8px" fill="#000000" x="85.10982001279281" y="3" font-family="sans-serif">IS_COLUMN_OF_TABLE</text></g><g class="relationship" transform="translate(-153.81765309406111 -248.6072988385568) rotate(443.6808035529519)"><path class="outline" fill="#A5ABB6" stroke="none" d="M 5 0.5 L 12.50723342978425 0.5 L 12.50723342978425 -0.5 L 5 -0.5 Z M 106.50723342978425 0.5 L 114.0144668595685 0.5 L 114.0144668595685 3.5 L 121.0144668595685 0 L 114.0144668595685 -3.5 L 114.0144668595685 -0.5 L 106.50723342978425 -0.5 Z"/><text text-anchor="middle" pointer-events="none" font-size="8px" fill="#000000" x="59.50723342978425" y="3" font-family="sans-serif">IS_COLUMN_OF_TABLE</text></g><g class="relationship" transform="translate(-213.67983305370745 -219.89807349672648) rotate(413.80401504562764)"><path class="outline" fill="#A5ABB6" stroke="none" d="M 5 0.5 L 9.89281393817889 0.5 L 9.89281393817889 -0.5 L 5 -0.5 Z M 103.89281393817889 0.5 L 108.78562787635778 0.5 L 108.78562787635778 3.5 L 115.78562787635778 0 L 108.78562787635778 -3.5 L 108.78562787635778 -0.5 L 103.89281393817889 -0.5 Z"/><text text-anchor="middle" pointer-events="none" font-size="8px" fill="#000000" x="56.89281393817889" y="3" font-family="sans-serif">IS_COLUMN_OF_TABLE</text></g><g class="relationship" transform="translate(-178.9157092903368 -295.23128022467324) rotate(437.4032390944215)"><path class="outline" fill="#A5ABB6" stroke="none" d="M 5 0.5 L 37.60208536380539 0.5 L 37.60208536380539 -0.5 L 5 -0.5 Z M 131.60208536380537 0.5 L 164.20417072761077 0.5 L 164.20417072761077 3.5 L 171.20417072761077 0 L 164.20417072761077 -3.5 L 164.20417072761077 -0.5 L 131.60208536380537 -0.5 Z"/><text text-anchor="middle" pointer-events="none" font-size="8px" fill="#000000" x="84.60208536380539" y="3" font-family="sans-serif">IS_COLUMN_OF_TABLE</text></g><g class="relationship" transform="translate(-299.8183295794482 -188.5683060184954) rotate(383.6279452718677)"><path class="outline" fill="#A5ABB6" stroke="none" d="M 5 0.5 L 34.550100498341834 0.5 L 34.550100498341834 -0.5 L 5 -0.5 Z M 128.55010049834183 0.5 L 158.10020099668367 0.5 L 158.10020099668367 3.5 L 165.10020099668367 0 L 158.10020099668367 -3.5 L 158.10020099668367 -0.5 L 128.55010049834183 -0.5 Z"/><text text-anchor="middle" pointer-events="none" font-size="8px" fill="#000000" x="81.55010049834183" y="3" font-family="sans-serif">IS_COLUMN_OF_TABLE</text></g><g class="relationship" transform="translate(-235.27102811522587 -281.45735959789533) rotate(419.5472112899499)"><path class="outline" fill="#A5ABB6" stroke="none" d="M 5 0.5 L 41.582132401449016 0.5 L 41.582132401449016 -0.5 L 5 -0.5 Z M 135.58213240144903 0.5 L 172.16426480289803 0.5 L 172.16426480289803 3.5 L 179.16426480289803 0 L 172.16426480289803 -3.5 L 172.16426480289803 -0.5 L 135.58213240144903 -0.5 Z"/><text text-anchor="middle" pointer-events="none" font-size="8px" fill="#000000" x="88.58213240144902" y="3" font-family="sans-serif">IS_COLUMN_OF_TABLE</text></g><g class="relationship" transform="translate(-99.07549021923265 298.8358391124128) rotate(314.18935796243744)"><path class="outline" fill="#A5ABB6" stroke="none" d="M 5 0.5 L 5.131796720496212 0.5 L 5.131796720496212 -0.5 L 5 -0.5 Z M 89.13179672049621 0.5 L 89.26359344099242 0.5 L 89.26359344099242 3.5 L 96.26359344099242 0 L 89.26359344099242 -3.5 L 89.26359344099242 -0.5 L 89.13179672049621 -0.5 Z"/><text text-anchor="middle" pointer-events="none" font-size="8px" fill="#000000" x="47.13179672049621" y="3" font-family="sans-serif">IS_COLUMN_OF_T…</text></g><g class="relationship" transform="translate(-127.19126831804331 243.05650106080816) rotate(348.70142288656416)"><path class="outline" fill="#A5ABB6" stroke="none" d="M 5 0.5 L 6.602213696066528 0.5 L 6.602213696066528 -0.5 L 5 -0.5 Z M 85.60221369606653 0.5 L 87.20442739213306 0.5 L 87.20442739213306 3.5 L 94.20442739213306 0 L 87.20442739213306 -3.5 L 87.20442739213306 -0.5 L 85.60221369606653 -0.5 Z"/><text text-anchor="middle" pointer-events="none" font-size="8px" fill="#000000" x="46.10221369606653" y="3" font-family="sans-serif">IS_COLUMN_OF_…</text></g><g class="relationship" transform="translate(-10.542139877878302 317.0131394253591) rotate(261.28623633804)"><path class="outline" fill="#A5ABB6" stroke="none" d="M 5 0.5 L 6.737284781400589 0.5 L 6.737284781400589 -0.5 L 5 -0.5 Z M 76.73728478140059 0.5 L 78.47456956280118 0.5 L 78.47456956280118 3.5 L 85.47456956280118 0 L 78.47456956280118 -3.5 L 78.47456956280118 -0.5 L 76.73728478140059 -0.5 Z"/><text text-anchor="middle" pointer-events="none" font-size="8px" fill="#000000" x="41.73728478140059" y="3" transform="rotate(180 41.73728478140059 0)" font-family="sans-serif">IS_COLUMN_O…</text></g><g class="relationship" transform="translate(203.46240378980775 480.4228821558232) rotate(259.5345734361602)"><path class="outline" fill="#A5ABB6" stroke="none" d="M 5 0.5 L 6.723626430013567 0.5 L 6.723626430013567 -0.5 L 5 -0.5 Z M 76.72362643001357 0.5 L 78.44725286002713 0.5 L 78.44725286002713 3.5 L 85.44725286002713 0 L 78.44725286002713 -3.5 L 78.44725286002713 -0.5 L 76.72362643001357 -0.5 Z"/><text text-anchor="middle" pointer-events="none" font-size="8px" fill="#000000" x="41.72362643001357" y="3" transform="rotate(180 41.72362643001357 0)" font-family="sans-serif">IS_COLUMN_O…</text></g><g class="relationship" transform="translate(226.18182567394174 527.7826511111789) rotate(254.1640741322948)"><path class="outline" fill="#A5ABB6" stroke="none" d="M 5 0.5 L 20.395175097698925 0.5 L 20.395175097698925 -0.5 L 5 -0.5 Z M 114.39517509769892 0.5 L 129.79035019539785 0.5 L 129.79035019539785 3.5 L 136.79035019539785 0 L 129.79035019539785 -3.5 L 129.79035019539785 -0.5 L 114.39517509769892 -0.5 Z"/><text text-anchor="middle" pointer-events="none" font-size="8px" fill="#000000" x="67.39517509769892" y="3" transform="rotate(180 67.39517509769892 0)" font-family="sans-serif">IS_COLUMN_OF_TABLE</text></g><g class="relationship" transform="translate(346.77541981373446 455.854294018998) rotate(203.33126190445944)"><path class="outline" fill="#A5ABB6" stroke="none" d="M 5 0.5 L 34.478185344482114 0.5 L 34.478185344482114 -0.5 L 5 -0.5 Z M 128.4781853444821 0.5 L 157.95637068896423 0.5 L 157.95637068896423 3.5 L 164.95637068896423 0 L 157.95637068896423 -3.5 L 157.95637068896423 -0.5 L 128.4781853444821 -0.5 Z"/><text text-anchor="middle" pointer-events="none" font-size="8px" fill="#000000" x="81.47818534448211" y="3" transform="rotate(180 81.47818534448211 0)" font-family="sans-serif">IS_COLUMN_OF_TABLE</text></g><g class="relationship" transform="translate(128.46374031508003 475.7983024500282) rotate(302.86956517682927)"><path class="outline" fill="#A5ABB6" stroke="none" d="M 5 0.5 L 5.121800085381622 0.5 L 5.121800085381622 -0.5 L 5 -0.5 Z M 89.12180008538162 0.5 L 89.24360017076324 0.5 L 89.24360017076324 3.5 L 96.24360017076324 0 L 89.24360017076324 -3.5 L 89.24360017076324 -0.5 L 89.12180008538162 -0.5 Z"/><text text-anchor="middle" pointer-events="none" font-size="8px" fill="#000000" x="47.12180008538162" y="3" font-family="sans-serif">IS_COLUMN_OF_T…</text></g><g class="relationship" transform="translate(148.70824624536206 528.3104145408686) rotate(284.787054705649)"><path class="outline" fill="#A5ABB6" stroke="none" d="M 5 0.5 L 20.301150477603798 0.5 L 20.301150477603798 -0.5 L 5 -0.5 Z M 114.3011504776038 0.5 L 129.6023009552076 0.5 L 129.6023009552076 3.5 L 136.6023009552076 0 L 129.6023009552076 -3.5 L 129.6023009552076 -0.5 L 114.3011504776038 -0.5 Z"/><text text-anchor="middle" pointer-events="none" font-size="8px" fill="#000000" x="67.3011504776038" y="3" font-family="sans-serif">IS_COLUMN_OF_TABLE</text></g><g class="relationship" transform="translate(180.16163592738295 572.4479718251702) rotate(271.8375246424774)"><path class="outline" fill="#A5ABB6" stroke="none" d="M 5 0.5 L 39.9900919996915 0.5 L 39.9900919996915 -0.5 L 5 -0.5 Z M 133.99009199969151 0.5 L 168.980183999383 0.5 L 168.980183999383 3.5 L 175.980183999383 0 L 168.980183999383 -3.5 L 168.980183999383 -0.5 L 133.99009199969151 -0.5 Z"/><text text-anchor="middle" pointer-events="none" font-size="8px" fill="#000000" x="86.9900919996915" y="3" font-family="sans-serif">IS_COLUMN_OF_TABLE</text></g><g class="relationship" transform="translate(291.7053837279553 547.2274294135417) rotate(236.68911441395704)"><path class="outline" fill="#A5ABB6" stroke="none" d="M 5 0.5 L 43.12505789131903 0.5 L 43.12505789131903 -0.5 L 5 -0.5 Z M 137.12505789131905 0.5 L 175.25011578263806 0.5 L 175.25011578263806 3.5 L 182.25011578263806 0 L 175.25011578263806 -3.5 L 175.25011578263806 -0.5 L 137.12505789131905 -0.5 Z"/><text text-anchor="middle" pointer-events="none" font-size="8px" fill="#000000" x="90.12505789131903" y="3" transform="rotate(180 90.12505789131903 0)" font-family="sans-serif">IS_COLUMN_OF_TABLE</text></g><g class="relationship" transform="translate(278.14324630848074 427.788648301986) rotate(204.13296075131677)"><path class="outline" fill="#A5ABB6" stroke="none" d="M 5 0.5 L 6.915394225481812 0.5 L 6.915394225481812 -0.5 L 5 -0.5 Z M 81.9153942254818 0.5 L 83.83078845096362 0.5 L 83.83078845096362 3.5 L 90.83078845096362 0 L 83.83078845096362 -3.5 L 83.83078845096362 -0.5 L 81.9153942254818 -0.5 Z"/><text text-anchor="middle" pointer-events="none" font-size="8px" fill="#000000" x="44.41539422548181" y="3" transform="rotate(180 44.41539422548181 0)" font-family="sans-serif">IS_COLUMN_OF…</text></g><g class="relationship" transform="translate(279.2687697219324 484.56255740458556) rotate(226.4551483350424)"><path class="outline" fill="#A5ABB6" stroke="none" d="M 5 0.5 L 14.600966711479117 0.5 L 14.600966711479117 -0.5 L 5 -0.5 Z M 108.60096671147912 0.5 L 118.20193342295823 0.5 L 118.20193342295823 3.5 L 125.20193342295823 0 L 118.20193342295823 -3.5 L 118.20193342295823 -0.5 L 108.60096671147912 -0.5 Z"/><text text-anchor="middle" pointer-events="none" font-size="8px" fill="#000000" x="61.60096671147912" y="3" transform="rotate(180 61.60096671147912 0)" font-family="sans-serif">IS_COLUMN_OF_TABLE</text></g><g class="relationship" transform="translate(325.0362577046686 401.5897821594605) rotate(186.17382080922425)"><path class="outline" fill="#A5ABB6" stroke="none" d="M 5 0.5 L 16.86072812303655 0.5 L 16.86072812303655 -0.5 L 5 -0.5 Z M 110.86072812303655 0.5 L 122.7214562460731 0.5 L 122.7214562460731 3.5 L 129.7214562460731 0 L 122.7214562460731 -3.5 L 122.7214562460731 -0.5 L 110.86072812303655 -0.5 Z"/><text text-anchor="middle" pointer-events="none" font-size="8px" fill="#000000" x="63.86072812303655" y="3" transform="rotate(180 63.86072812303655 0)" font-family="sans-serif">IS_COLUMN_OF_TABLE</text></g><g class="relationship" transform="translate(333.7350507755389 510.78912297027557) rotate(220.08333200522355)"><path class="outline" fill="#A5ABB6" stroke="none" d="M 5 0.5 L 43.46334161373886 0.5 L 43.46334161373886 -0.5 L 5 -0.5 Z M 137.46334161373886 0.5 L 175.92668322747772 0.5 L 175.92668322747772 3.5 L 182.92668322747772 0 L 175.92668322747772 -3.5 L 175.92668322747772 -0.5 L 137.46334161373886 -0.5 Z"/><text text-anchor="middle" pointer-events="none" font-size="8px" fill="#000000" x="90.46334161373886" y="3" transform="rotate(180 90.46334161373886 0)" font-family="sans-serif">IS_COLUMN_OF_TABLE</text></g><g class="relationship" transform="translate(245.10425684855795 577.0579999975753) rotate(252.79693198037626)"><path class="outline" fill="#A5ABB6" stroke="none" d="M 5 0.5 L 46.70797089120609 0.5 L 46.70797089120609 -0.5 L 5 -0.5 Z M 140.7079708912061 0.5 L 182.41594178241218 0.5 L 182.41594178241218 3.5 L 189.41594178241218 0 L 182.41594178241218 -3.5 L 182.41594178241218 -0.5 L 140.7079708912061 -0.5 Z"/><text text-anchor="middle" pointer-events="none" font-size="8px" fill="#000000" x="93.70797089120609" y="3" transform="rotate(180 93.70797089120609 0)" font-family="sans-serif">IS_COLUMN_OF_TABLE</text></g></g><g class="layer nodes"><g class="node" transform="translate(57.278006992265226,131.29674334702474)"><circle class="outline" cx="0" cy="0" r="25" fill="#FB95AF" stroke="#E0849B" stroke-width="2px"/><text text-anchor="middle" pointer-events="none" y="5" font-size="10px" fill="#FFFFFF" font-family="sans-serif"> public</text></g><g class="node" transform="translate(-240.76824760207992,134.21509855370542)"><circle class="outline" cx="0" cy="0" r="10" fill="#FF756E" stroke="#E06760" stroke-width="2px"/><text text-anchor="middle" pointer-events="none" y="5" font-size="10px" fill="#FFFFFF" font-family="sans-serif"> p…</text></g><g class="node" transform="translate(-438.1879358931698,155.9229388521654)"><circle class="outline" cx="0" cy="0" r="5" fill="#68BDF6" stroke="#5CA8DB" stroke-width="2px"/><text text-anchor="middle" pointer-events="none" y="5" font-size="10px" fill="#FFFFFF" font-family="sans-serif"/></g><g class="node" transform="translate(-350.87112548557934,7.891562969138783)"><circle class="outline" cx="0" cy="0" r="5" fill="#68BDF6" stroke="#5CA8DB" stroke-width="2px"/><text text-anchor="middle" pointer-events="none" y="5" font-size="10px" fill="#FFFFFF" font-family="sans-serif"/></g><g class="node" transform="translate(-405.8610398773236,229.03835835509346)"><circle class="outline" cx="0" cy="0" r="5" fill="#68BDF6" stroke="#5CA8DB" stroke-width="2px"/><text text-anchor="middle" pointer-events="none" y="5" font-size="10px" fill="#FFFFFF" font-family="sans-serif"/></g><g class="node" transform="translate(-434.0502269532557,92.07080263419394)"><circle class="outline" cx="0" cy="0" r="5" fill="#68BDF6" stroke="#5CA8DB" stroke-width="2px"/><text text-anchor="middle" pointer-events="none" y="5" font-size="10px" fill="#FFFFFF" font-family="sans-serif"/></g><g class="node" transform="translate(-352.42497294438573,259.21237154437154)"><circle class="outline" cx="0" cy="0" r="5" fill="#68BDF6" stroke="#5CA8DB" stroke-width="2px"/><text text-anchor="middle" pointer-events="none" y="5" font-size="10px" fill="#FFFFFF" font-family="sans-serif"/></g><g class="node" transform="translate(-290.4389628806478,237.87534389867125)"><circle class="outline" cx="0" cy="0" r="5" fill="#68BDF6" stroke="#5CA8DB" stroke-width="2px"/><text text-anchor="middle" pointer-events="none" y="5" font-size="10px" fill="#FFFFFF" font-family="sans-serif"/></g><g class="node" transform="translate(-402.2623730419329,36.85198166679116)"><circle class="outline" cx="0" cy="0" r="5" fill="#68BDF6" stroke="#5CA8DB" stroke-width="2px"/><text text-anchor="middle" pointer-events="none" y="5" font-size="10px" fill="#FFFFFF" font-family="sans-serif"/></g><g class="node" transform="translate(-384.52344390297736,100.55764317646813)"><circle class="outline" cx="0" cy="0" r="5" fill="#68BDF6" stroke="#5CA8DB" stroke-width="2px"/><text text-anchor="middle" pointer-events="none" y="5" font-size="10px" fill="#FFFFFF" font-family="sans-serif"/></g><g class="node" transform="translate(-290.8472750783698,32.19056112920765)"><circle class="outline" cx="0" cy="0" r="5" fill="#68BDF6" stroke="#5CA8DB" stroke-width="2px"/><text text-anchor="middle" pointer-events="none" y="5" font-size="10px" fill="#FFFFFF" font-family="sans-serif"/></g><g class="node" transform="translate(-335.51264287749063,201.09855087360665)"><circle class="outline" cx="0" cy="0" r="5" fill="#68BDF6" stroke="#5CA8DB" stroke-width="2px"/><text text-anchor="middle" pointer-events="none" y="5" font-size="10px" fill="#FFFFFF" font-family="sans-serif"/></g><g class="node" transform="translate(-336.7857974863413,68.13417286773618)"><circle class="outline" cx="0" cy="0" r="5" fill="#68BDF6" stroke="#5CA8DB" stroke-width="2px"/><text text-anchor="middle" pointer-events="none" y="5" font-size="10px" fill="#FFFFFF" font-family="sans-serif"/></g><g class="node" transform="translate(-391.24711684900933,176.43542850669644)"><circle class="outline" cx="0" cy="0" r="5" fill="#68BDF6" stroke="#5CA8DB" stroke-width="2px"/><text text-anchor="middle" pointer-events="none" y="5" font-size="10px" fill="#FFFFFF" font-family="sans-serif"/></g><g class="node" transform="translate(-344.82596465231603,138.08550236167608)"><circle class="outline" cx="0" cy="0" r="5" fill="#68BDF6" stroke="#5CA8DB" stroke-width="2px"/><text text-anchor="middle" pointer-events="none" y="5" font-size="10px" fill="#FFFFFF" font-family="sans-serif"/></g><g class="node" transform="translate(-77.32721640111045,401.43240691053137)"><circle class="outline" cx="0" cy="0" r="10" fill="#FF756E" stroke="#E06760" stroke-width="2px"/><text text-anchor="middle" pointer-events="none" y="5" font-size="10px" fill="#FFFFFF" font-family="sans-serif"> p…</text></g><g class="node" transform="translate(-240.166772458804,478.85156833352573)"><circle class="outline" cx="0" cy="0" r="5" fill="#68BDF6" stroke="#5CA8DB" stroke-width="2px"/><text text-anchor="middle" pointer-events="none" y="5" font-size="10px" fill="#FFFFFF" font-family="sans-serif"/></g><g class="node" transform="translate(-186.5419437065457,467.4580593680332)"><circle class="outline" cx="0" cy="0" r="5" fill="#68BDF6" stroke="#5CA8DB" stroke-width="2px"/><text text-anchor="middle" pointer-events="none" y="5" font-size="10px" fill="#FFFFFF" font-family="sans-serif"/></g><g class="node" transform="translate(-213.45461011591897,538.2634842467064)"><circle class="outline" cx="0" cy="0" r="5" fill="#68BDF6" stroke="#5CA8DB" stroke-width="2px"/><text text-anchor="middle" pointer-events="none" y="5" font-size="10px" fill="#FFFFFF" font-family="sans-serif"/></g><g class="node" transform="translate(-147.95521876526183,580.0899196105132)"><circle class="outline" cx="0" cy="0" r="5" fill="#68BDF6" stroke="#5CA8DB" stroke-width="2px"/><text text-anchor="middle" pointer-events="none" y="5" font-size="10px" fill="#FFFFFF" font-family="sans-serif"/></g><g class="node" transform="translate(-208.63538605845125,417.66637912538454)"><circle class="outline" cx="0" cy="0" r="5" fill="#68BDF6" stroke="#5CA8DB" stroke-width="2px"/><text text-anchor="middle" pointer-events="none" y="5" font-size="10px" fill="#FFFFFF" font-family="sans-serif"/></g><g class="node" transform="translate(-91.94622685697964,588.0499381242767)"><circle class="outline" cx="0" cy="0" r="5" fill="#68BDF6" stroke="#5CA8DB" stroke-width="2px"/><text text-anchor="middle" pointer-events="none" y="5" font-size="10px" fill="#FFFFFF" font-family="sans-serif"/></g><g class="node" transform="translate(-131.25919008858585,480.9642107053053)"><circle class="outline" cx="0" cy="0" r="5" fill="#68BDF6" stroke="#5CA8DB" stroke-width="2px"/><text text-anchor="middle" pointer-events="none" y="5" font-size="10px" fill="#FFFFFF" font-family="sans-serif"/></g><g class="node" transform="translate(-37.46258448787422,564.4063767611906)"><circle class="outline" cx="0" cy="0" r="5" fill="#68BDF6" stroke="#5CA8DB" stroke-width="2px"/><text text-anchor="middle" pointer-events="none" y="5" font-size="10px" fill="#FFFFFF" font-family="sans-serif"/></g><g class="node" transform="translate(-160.5248249083282,530.0670743704761)"><circle class="outline" cx="0" cy="0" r="5" fill="#68BDF6" stroke="#5CA8DB" stroke-width="2px"/><text text-anchor="middle" pointer-events="none" y="5" font-size="10px" fill="#FFFFFF" font-family="sans-serif"/></g><g class="node" transform="translate(-89.69295988801699,525.8139545702513)"><circle class="outline" cx="0" cy="0" r="5" fill="#68BDF6" stroke="#5CA8DB" stroke-width="2px"/><text text-anchor="middle" pointer-events="none" y="5" font-size="10px" fill="#FFFFFF" font-family="sans-serif"/></g><g class="node" transform="translate(-29.971595580525612,505.5567435863046)"><circle class="outline" cx="0" cy="0" r="5" fill="#68BDF6" stroke="#5CA8DB" stroke-width="2px"/><text text-anchor="middle" pointer-events="none" y="5" font-size="10px" fill="#FFFFFF" font-family="sans-serif"/></g><g class="node" transform="translate(397.7131238914585,115.78191082870448)"><circle class="outline" cx="0" cy="0" r="10" fill="#FF756E" stroke="#E06760" stroke-width="2px"/><text text-anchor="middle" pointer-events="none" y="5" font-size="10px" fill="#FFFFFF" font-family="sans-serif"> p…</text></g><g class="node" transform="translate(592.576054483013,61.35672304610415)"><circle class="outline" cx="0" cy="0" r="5" fill="#68BDF6" stroke="#5CA8DB" stroke-width="2px"/><text text-anchor="middle" pointer-events="none" y="5" font-size="10px" fill="#FFFFFF" font-family="sans-serif"/></g><g class="node" transform="translate(512.4261038307807,174.55179015640286)"><circle class="outline" cx="0" cy="0" r="5" fill="#68BDF6" stroke="#5CA8DB" stroke-width="2px"/><text text-anchor="middle" pointer-events="none" y="5" font-size="10px" fill="#FFFFFF" font-family="sans-serif"/></g><g class="node" transform="translate(580.5859100038545,195.62273065285444)"><circle class="outline" cx="0" cy="0" r="5" fill="#68BDF6" stroke="#5CA8DB" stroke-width="2px"/><text text-anchor="middle" pointer-events="none" y="5" font-size="10px" fill="#FFFFFF" font-family="sans-serif"/></g><g class="node" transform="translate(602.4691379871568,121.33327509332537)"><circle class="outline" cx="0" cy="0" r="5" fill="#68BDF6" stroke="#5CA8DB" stroke-width="2px"/><text text-anchor="middle" pointer-events="none" y="5" font-size="10px" fill="#FFFFFF" font-family="sans-serif"/></g><g class="node" transform="translate(485.6843296309541,251.02306591320848)"><circle class="outline" cx="0" cy="0" r="5" fill="#68BDF6" stroke="#5CA8DB" stroke-width="2px"/><text text-anchor="middle" pointer-events="none" y="5" font-size="10px" fill="#FFFFFF" font-family="sans-serif"/></g><g class="node" transform="translate(448.4726223503911,3.8345789816442446)"><circle class="outline" cx="0" cy="0" r="5" fill="#68BDF6" stroke="#5CA8DB" stroke-width="2px"/><text text-anchor="middle" pointer-events="none" y="5" font-size="10px" fill="#FFFFFF" font-family="sans-serif"/></g><g class="node" transform="translate(557.0135578300225,6.66899358262082)"><circle class="outline" cx="0" cy="0" r="5" fill="#68BDF6" stroke="#5CA8DB" stroke-width="2px"/><text text-anchor="middle" pointer-events="none" y="5" font-size="10px" fill="#FFFFFF" font-family="sans-serif"/></g><g class="node" transform="translate(537.343976731031,233.5282508045103)"><circle class="outline" cx="0" cy="0" r="5" fill="#68BDF6" stroke="#5CA8DB" stroke-width="2px"/><text text-anchor="middle" pointer-events="none" y="5" font-size="10px" fill="#FFFFFF" font-family="sans-serif"/></g><g class="node" transform="translate(557.5222555308424,140.49912744223775)"><circle class="outline" cx="0" cy="0" r="5" fill="#68BDF6" stroke="#5CA8DB" stroke-width="2px"/><text text-anchor="middle" pointer-events="none" y="5" font-size="10px" fill="#FFFFFF" font-family="sans-serif"/></g><g class="node" transform="translate(539.4582287463994,66.60616053077153)"><circle class="outline" cx="0" cy="0" r="5" fill="#68BDF6" stroke="#5CA8DB" stroke-width="2px"/><text text-anchor="middle" pointer-events="none" y="5" font-size="10px" fill="#FFFFFF" font-family="sans-serif"/></g><g class="node" transform="translate(461.15313870934756,201.92517496242831)"><circle class="outline" cx="0" cy="0" r="5" fill="#68BDF6" stroke="#5CA8DB" stroke-width="2px"/><text text-anchor="middle" pointer-events="none" y="5" font-size="10px" fill="#FFFFFF" font-family="sans-serif"/></g><g class="node" transform="translate(504.7579139283275,-19.36687144706243)"><circle class="outline" cx="0" cy="0" r="5" fill="#68BDF6" stroke="#5CA8DB" stroke-width="2px"/><text text-anchor="middle" pointer-events="none" y="5" font-size="10px" fill="#FFFFFF" font-family="sans-serif"/></g><g class="node" transform="translate(501.92316581080576,111.77569432423377)"><circle class="outline" cx="0" cy="0" r="5" fill="#68BDF6" stroke="#5CA8DB" stroke-width="2px"/><text text-anchor="middle" pointer-events="none" y="5" font-size="10px" fill="#FFFFFF" font-family="sans-serif"/></g><g class="node" transform="translate(487.65443666965575,43.02010024316694)"><circle class="outline" cx="0" cy="0" r="5" fill="#68BDF6" stroke="#5CA8DB" stroke-width="2px"/><text text-anchor="middle" pointer-events="none" y="5" font-size="10px" fill="#FFFFFF" font-family="sans-serif"/></g><g class="node" transform="translate(170.60468940745824,168.29387732974737)"><circle class="outline" cx="0" cy="0" r="10" fill="#FF756E" stroke="#E06760" stroke-width="2px"/><text text-anchor="middle" pointer-events="none" y="5" font-size="10px" fill="#FFFFFF" font-family="sans-serif"> p…</text></g><g class="node" transform="translate(282.0418720792473,228.50373093695288)"><circle class="outline" cx="0" cy="0" r="5" fill="#68BDF6" stroke="#5CA8DB" stroke-width="2px"/><text text-anchor="middle" pointer-events="none" y="5" font-size="10px" fill="#FFFFFF" font-family="sans-serif"/></g><g class="node" transform="translate(228.66905069906178,252.60524531674744)"><circle class="outline" cx="0" cy="0" r="5" fill="#68BDF6" stroke="#5CA8DB" stroke-width="2px"/><text text-anchor="middle" pointer-events="none" y="5" font-size="10px" fill="#FFFFFF" font-family="sans-serif"/></g><g class="node" transform="translate(275.4703482989722,170.00886454731915)"><circle class="outline" cx="0" cy="0" r="5" fill="#68BDF6" stroke="#5CA8DB" stroke-width="2px"/><text text-anchor="middle" pointer-events="none" y="5" font-size="10px" fill="#FFFFFF" font-family="sans-serif"/></g><g class="node" transform="translate(154.93740757393277,254.75515368564407)"><circle class="outline" cx="0" cy="0" r="5" fill="#68BDF6" stroke="#5CA8DB" stroke-width="2px"/><text text-anchor="middle" pointer-events="none" y="5" font-size="10px" fill="#FFFFFF" font-family="sans-serif"/></g><g class="node" transform="translate(261.7700398290202,109.99757500161405)"><circle class="outline" cx="0" cy="0" r="5" fill="#68BDF6" stroke="#5CA8DB" stroke-width="2px"/><text text-anchor="middle" pointer-events="none" y="5" font-size="10px" fill="#FFFFFF" font-family="sans-serif"/></g><g class="node" transform="translate(198.05560591267437,85.79693814143876)"><circle class="outline" cx="0" cy="0" r="5" fill="#68BDF6" stroke="#5CA8DB" stroke-width="2px"/><text text-anchor="middle" pointer-events="none" y="5" font-size="10px" fill="#FFFFFF" font-family="sans-serif"/></g><g class="node" transform="translate(144.16083664839078,-136.51851364312077)"><circle class="outline" cx="0" cy="0" r="10" fill="#FF756E" stroke="#E06760" stroke-width="2px"/><text text-anchor="middle" pointer-events="none" y="5" font-size="10px" fill="#FFFFFF" font-family="sans-serif"> p…</text></g><g class="node" transform="translate(127.06744463421172,-345.21086727635316)"><circle class="outline" cx="0" cy="0" r="5" fill="#68BDF6" stroke="#5CA8DB" stroke-width="2px"/><text text-anchor="middle" pointer-events="none" y="5" font-size="10px" fill="#FFFFFF" font-family="sans-serif"/></g><g class="node" transform="translate(237.11127443912613,-330.59057244810356)"><circle class="outline" cx="0" cy="0" r="5" fill="#68BDF6" stroke="#5CA8DB" stroke-width="2px"/><text text-anchor="middle" pointer-events="none" y="5" font-size="10px" fill="#FFFFFF" font-family="sans-serif"/></g><g class="node" transform="translate(184.75147794557947,-338.77473523042244)"><circle class="outline" cx="0" cy="0" r="5" fill="#68BDF6" stroke="#5CA8DB" stroke-width="2px"/><text text-anchor="middle" pointer-events="none" y="5" font-size="10px" fill="#FFFFFF" font-family="sans-serif"/></g><g class="node" transform="translate(319.68276103544287,-200.42541434300648)"><circle class="outline" cx="0" cy="0" r="5" fill="#68BDF6" stroke="#5CA8DB" stroke-width="2px"/><text text-anchor="middle" pointer-events="none" y="5" font-size="10px" fill="#FFFFFF" font-family="sans-serif"/></g><g class="node" transform="translate(174.20302355202472,-233.2051913937409)"><circle class="outline" cx="0" cy="0" r="5" fill="#68BDF6" stroke="#5CA8DB" stroke-width="2px"/><text text-anchor="middle" pointer-events="none" y="5" font-size="10px" fill="#FFFFFF" font-family="sans-serif"/></g><g class="node" transform="translate(156.158057477579,-291.6047555692876)"><circle class="outline" cx="0" cy="0" r="5" fill="#68BDF6" stroke="#5CA8DB" stroke-width="2px"/><text text-anchor="middle" pointer-events="none" y="5" font-size="10px" fill="#FFFFFF" font-family="sans-serif"/></g><g class="node" transform="translate(282.41745403285574,-296.6010339379543)"><circle class="outline" cx="0" cy="0" r="5" fill="#68BDF6" stroke="#5CA8DB" stroke-width="2px"/><text text-anchor="middle" pointer-events="none" y="5" font-size="10px" fill="#FFFFFF" font-family="sans-serif"/></g><g class="node" transform="translate(105.3574420669982,-221.9187556525854)"><circle class="outline" cx="0" cy="0" r="5" fill="#68BDF6" stroke="#5CA8DB" stroke-width="2px"/><text text-anchor="middle" pointer-events="none" y="5" font-size="10px" fill="#FFFFFF" font-family="sans-serif"/></g><g class="node" transform="translate(70.52222272714685,-322.8177295796834)"><circle class="outline" cx="0" cy="0" r="5" fill="#68BDF6" stroke="#5CA8DB" stroke-width="2px"/><text text-anchor="middle" pointer-events="none" y="5" font-size="10px" fill="#FFFFFF" font-family="sans-serif"/></g><g class="node" transform="translate(220.29629582200442,-274.6404413404715)"><circle class="outline" cx="0" cy="0" r="5" fill="#68BDF6" stroke="#5CA8DB" stroke-width="2px"/><text text-anchor="middle" pointer-events="none" y="5" font-size="10px" fill="#FFFFFF" font-family="sans-serif"/></g><g class="node" transform="translate(249.2674614350456,-225.61947956227448)"><circle class="outline" cx="0" cy="0" r="5" fill="#68BDF6" stroke="#5CA8DB" stroke-width="2px"/><text text-anchor="middle" pointer-events="none" y="5" font-size="10px" fill="#FFFFFF" font-family="sans-serif"/></g><g class="node" transform="translate(38.62817551602267,-267.4136050667827)"><circle class="outline" cx="0" cy="0" r="5" fill="#68BDF6" stroke="#5CA8DB" stroke-width="2px"/><text text-anchor="middle" pointer-events="none" y="5" font-size="10px" fill="#FFFFFF" font-family="sans-serif"/></g><g class="node" transform="translate(288.55579980195114,-162.45642268879052)"><circle class="outline" cx="0" cy="0" r="5" fill="#68BDF6" stroke="#5CA8DB" stroke-width="2px"/><text text-anchor="middle" pointer-events="none" y="5" font-size="10px" fill="#FFFFFF" font-family="sans-serif"/></g><g class="node" transform="translate(40.44098272784486,-214.48910338294368)"><circle class="outline" cx="0" cy="0" r="5" fill="#68BDF6" stroke="#5CA8DB" stroke-width="2px"/><text text-anchor="middle" pointer-events="none" y="5" font-size="10px" fill="#FFFFFF" font-family="sans-serif"/></g><g class="node" transform="translate(99.31925428585589,-278.3908370681893)"><circle class="outline" cx="0" cy="0" r="5" fill="#68BDF6" stroke="#5CA8DB" stroke-width="2px"/><text text-anchor="middle" pointer-events="none" y="5" font-size="10px" fill="#FFFFFF" font-family="sans-serif"/></g><g class="node" transform="translate(212.89787154648332,-84.2882207463173)"><circle class="outline" cx="0" cy="0" r="5" fill="#68BDF6" stroke="#5CA8DB" stroke-width="2px"/><text text-anchor="middle" pointer-events="none" y="5" font-size="10px" fill="#FFFFFF" font-family="sans-serif"/></g><g class="node" transform="translate(225.70438968422943,-175.40225078449697)"><circle class="outline" cx="0" cy="0" r="5" fill="#68BDF6" stroke="#5CA8DB" stroke-width="2px"/><text text-anchor="middle" pointer-events="none" y="5" font-size="10px" fill="#FFFFFF" font-family="sans-serif"/></g><g class="node" transform="translate(266.4164348080287,-115.53058618124311)"><circle class="outline" cx="0" cy="0" r="5" fill="#68BDF6" stroke="#5CA8DB" stroke-width="2px"/><text text-anchor="middle" pointer-events="none" y="5" font-size="10px" fill="#FFFFFF" font-family="sans-serif"/></g><g class="node" transform="translate(55.44723438806507,-155.56691616424524)"><circle class="outline" cx="0" cy="0" r="5" fill="#68BDF6" stroke="#5CA8DB" stroke-width="2px"/><text text-anchor="middle" pointer-events="none" y="5" font-size="10px" fill="#FFFFFF" font-family="sans-serif"/></g><g class="node" transform="translate(303.88481257027513,-249.61455147730487)"><circle class="outline" cx="0" cy="0" r="5" fill="#68BDF6" stroke="#5CA8DB" stroke-width="2px"/><text text-anchor="middle" pointer-events="none" y="5" font-size="10px" fill="#FFFFFF" font-family="sans-serif"/></g><g class="node" transform="translate(-34.97187403795342,57.73231270472445)"><circle class="outline" cx="0" cy="0" r="10" fill="#FF756E" stroke="#E06760" stroke-width="2px"/><text text-anchor="middle" pointer-events="none" y="5" font-size="10px" fill="#FFFFFF" font-family="sans-serif"> p…</text></g><g class="node" transform="translate(-25.606833387727058,-31.531390685461542)"><circle class="outline" cx="0" cy="0" r="5" fill="#68BDF6" stroke="#5CA8DB" stroke-width="2px"/><text text-anchor="middle" pointer-events="none" y="5" font-size="10px" fill="#FFFFFF" font-family="sans-serif"/></g><g class="node" transform="translate(-138.50254480410632,8.384496929751666)"><circle class="outline" cx="0" cy="0" r="5" fill="#68BDF6" stroke="#5CA8DB" stroke-width="2px"/><text text-anchor="middle" pointer-events="none" y="5" font-size="10px" fill="#FFFFFF" font-family="sans-serif"/></g><g class="node" transform="translate(-95.67905723410746,-32.72639077762244)"><circle class="outline" cx="0" cy="0" r="5" fill="#68BDF6" stroke="#5CA8DB" stroke-width="2px"/><text text-anchor="middle" pointer-events="none" y="5" font-size="10px" fill="#FFFFFF" font-family="sans-serif"/></g><g class="node" transform="translate(-124.49811466911714,79.07680951311676)"><circle class="outline" cx="0" cy="0" r="5" fill="#68BDF6" stroke="#5CA8DB" stroke-width="2px"/><text text-anchor="middle" pointer-events="none" y="5" font-size="10px" fill="#FFFFFF" font-family="sans-serif"/></g><g class="node" transform="translate(-139.3972414783998,-118.38885830369296)"><circle class="outline" cx="0" cy="0" r="10" fill="#FF756E" stroke="#E06760" stroke-width="2px"/><text text-anchor="middle" pointer-events="none" y="5" font-size="10px" fill="#FFFFFF" font-family="sans-serif"> p…</text></g><g class="node" transform="translate(-153.81765309406111,-248.6072988385568)"><circle class="outline" cx="0" cy="0" r="5" fill="#68BDF6" stroke="#5CA8DB" stroke-width="2px"/><text text-anchor="middle" pointer-events="none" y="5" font-size="10px" fill="#FFFFFF" font-family="sans-serif"/></g><g class="node" transform="translate(-235.27102811522587,-281.45735959789533)"><circle class="outline" cx="0" cy="0" r="5" fill="#68BDF6" stroke="#5CA8DB" stroke-width="2px"/><text text-anchor="middle" pointer-events="none" y="5" font-size="10px" fill="#FFFFFF" font-family="sans-serif"/></g><g class="node" transform="translate(-299.8183295794482,-188.5683060184954)"><circle class="outline" cx="0" cy="0" r="5" fill="#68BDF6" stroke="#5CA8DB" stroke-width="2px"/><text text-anchor="middle" pointer-events="none" y="5" font-size="10px" fill="#FFFFFF" font-family="sans-serif"/></g><g class="node" transform="translate(-178.9157092903368,-295.23128022467324)"><circle class="outline" cx="0" cy="0" r="5" fill="#68BDF6" stroke="#5CA8DB" stroke-width="2px"/><text text-anchor="middle" pointer-events="none" y="5" font-size="10px" fill="#FFFFFF" font-family="sans-serif"/></g><g class="node" transform="translate(-213.67983305370745,-219.89807349672648)"><circle class="outline" cx="0" cy="0" r="5" fill="#68BDF6" stroke="#5CA8DB" stroke-width="2px"/><text text-anchor="middle" pointer-events="none" y="5" font-size="10px" fill="#FFFFFF" font-family="sans-serif"/></g><g class="node" transform="translate(-252.95902884703497,-163.31172757966206)"><circle class="outline" cx="0" cy="0" r="5" fill="#68BDF6" stroke="#5CA8DB" stroke-width="2px"/><text text-anchor="middle" pointer-events="none" y="5" font-size="10px" fill="#FFFFFF" font-family="sans-serif"/></g><g class="node" transform="translate(-273.80405012096287,-241.42871770533336)"><circle class="outline" cx="0" cy="0" r="5" fill="#68BDF6" stroke="#5CA8DB" stroke-width="2px"/><text text-anchor="middle" pointer-events="none" y="5" font-size="10px" fill="#FFFFFF" font-family="sans-serif"/></g><g class="node" transform="translate(-25.006372290309486,222.6405829593963)"><circle class="outline" cx="0" cy="0" r="10" fill="#FF756E" stroke="#E06760" stroke-width="2px"/><text text-anchor="middle" pointer-events="none" y="5" font-size="10px" fill="#FFFFFF" font-family="sans-serif"> p…</text></g><g class="node" transform="translate(-99.07549021923265,298.8358391124128)"><circle class="outline" cx="0" cy="0" r="5" fill="#68BDF6" stroke="#5CA8DB" stroke-width="2px"/><text text-anchor="middle" pointer-events="none" y="5" font-size="10px" fill="#FFFFFF" font-family="sans-serif"/></g><g class="node" transform="translate(-127.19126831804331,243.05650106080816)"><circle class="outline" cx="0" cy="0" r="5" fill="#68BDF6" stroke="#5CA8DB" stroke-width="2px"/><text text-anchor="middle" pointer-events="none" y="5" font-size="10px" fill="#FFFFFF" font-family="sans-serif"/></g><g class="node" transform="translate(-10.542139877878302,317.0131394253591)"><circle class="outline" cx="0" cy="0" r="5" fill="#68BDF6" stroke="#5CA8DB" stroke-width="2px"/><text text-anchor="middle" pointer-events="none" y="5" font-size="10px" fill="#FFFFFF" font-family="sans-serif"/></g><g class="node" transform="translate(186.12515705038086,386.56342363393424)"><circle class="outline" cx="0" cy="0" r="10" fill="#FF756E" stroke="#E06760" stroke-width="2px"/><text text-anchor="middle" pointer-events="none" y="5" font-size="10px" fill="#FFFFFF" font-family="sans-serif"> p…</text></g><g class="node" transform="translate(245.10425684855795,577.0579999975753)"><circle class="outline" cx="0" cy="0" r="5" fill="#68BDF6" stroke="#5CA8DB" stroke-width="2px"/><text text-anchor="middle" pointer-events="none" y="5" font-size="10px" fill="#FFFFFF" font-family="sans-serif"/></g><g class="node" transform="translate(180.16163592738295,572.4479718251702)"><circle class="outline" cx="0" cy="0" r="5" fill="#68BDF6" stroke="#5CA8DB" stroke-width="2px"/><text text-anchor="middle" pointer-events="none" y="5" font-size="10px" fill="#FFFFFF" font-family="sans-serif"/></g><g class="node" transform="translate(291.7053837279553,547.2274294135417)"><circle class="outline" cx="0" cy="0" r="5" fill="#68BDF6" stroke="#5CA8DB" stroke-width="2px"/><text text-anchor="middle" pointer-events="none" y="5" font-size="10px" fill="#FFFFFF" font-family="sans-serif"/></g><g class="node" transform="translate(128.46374031508003,475.7983024500282)"><circle class="outline" cx="0" cy="0" r="5" fill="#68BDF6" stroke="#5CA8DB" stroke-width="2px"/><text text-anchor="middle" pointer-events="none" y="5" font-size="10px" fill="#FFFFFF" font-family="sans-serif"/></g><g class="node" transform="translate(148.70824624536206,528.3104145408686)"><circle class="outline" cx="0" cy="0" r="5" fill="#68BDF6" stroke="#5CA8DB" stroke-width="2px"/><text text-anchor="middle" pointer-events="none" y="5" font-size="10px" fill="#FFFFFF" font-family="sans-serif"/></g><g class="node" transform="translate(325.0362577046686,401.5897821594605)"><circle class="outline" cx="0" cy="0" r="5" fill="#68BDF6" stroke="#5CA8DB" stroke-width="2px"/><text text-anchor="middle" pointer-events="none" y="5" font-size="10px" fill="#FFFFFF" font-family="sans-serif"/></g><g class="node" transform="translate(333.7350507755389,510.78912297027557)"><circle class="outline" cx="0" cy="0" r="5" fill="#68BDF6" stroke="#5CA8DB" stroke-width="2px"/><text text-anchor="middle" pointer-events="none" y="5" font-size="10px" fill="#FFFFFF" font-family="sans-serif"/></g><g class="node" transform="translate(278.14324630848074,427.788648301986)"><circle class="outline" cx="0" cy="0" r="5" fill="#68BDF6" stroke="#5CA8DB" stroke-width="2px"/><text text-anchor="middle" pointer-events="none" y="5" font-size="10px" fill="#FFFFFF" font-family="sans-serif"/></g><g class="node" transform="translate(279.2687697219324,484.56255740458556)"><circle class="outline" cx="0" cy="0" r="5" fill="#68BDF6" stroke="#5CA8DB" stroke-width="2px"/><text text-anchor="middle" pointer-events="none" y="5" font-size="10px" fill="#FFFFFF" font-family="sans-serif"/></g><g class="node" transform="translate(226.18182567394174,527.7826511111789)"><circle class="outline" cx="0" cy="0" r="5" fill="#68BDF6" stroke="#5CA8DB" stroke-width="2px"/><text text-anchor="middle" pointer-events="none" y="5" font-size="10px" fill="#FFFFFF" font-family="sans-serif"/></g><g class="node" transform="translate(203.46240378980775,480.4228821558232)"><circle class="outline" cx="0" cy="0" r="5" fill="#68BDF6" stroke="#5CA8DB" stroke-width="2px"/><text text-anchor="middle" pointer-events="none" y="5" font-size="10px" fill="#FFFFFF" font-family="sans-serif"/></g><g class="node" transform="translate(346.77541981373446,455.854294018998)"><circle class="outline" cx="0" cy="0" r="5" fill="#68BDF6" stroke="#5CA8DB" stroke-width="2px"/><text text-anchor="middle" pointer-events="none" y="5" font-size="10px" fill="#FFFFFF" font-family="sans-serif"/></g></g></svg>